<svg width="76" height="76" viewBox="0 0 76 76" fill="none" xmlns="http://www.w3.org/2000/svg">
<path d="M21.9016 6.13531C21.59 6.44131 21.8053 7.34231 22.304 7.81831C22.61 8.10731 23.2276 8.33397 23.5733 8.28864C23.919 8.23764 24.412 8.01097 24.6386 7.78997C25.0126 7.43297 25.0863 7.10431 24.8483 6.87197C24.6443 6.66231 24.123 6.67364 23.6526 6.89464L23.307 7.05897L23.2106 6.86631C23.086 6.59431 22.6723 6.16364 22.457 6.07297C22.1906 5.95964 22.0546 5.97664 21.9016 6.13531Z" fill="#386193"/>
<path d="M52.0314 9.03661C51.7424 9.14995 51.6347 10.0849 51.85 10.6516C51.9577 10.9519 52.3487 11.3883 52.6434 11.5469C52.9947 11.7339 53.7994 11.7113 54.2244 11.4959C54.4907 11.3599 54.6154 11.2126 54.6607 10.9916C54.689 10.8443 54.6664 10.7876 54.5304 10.6459C54.315 10.4306 53.958 10.3399 53.482 10.3739L53.1024 10.3966L53.0627 10.1359C52.955 9.37661 52.4677 8.86095 52.0314 9.03661Z" fill="#386193"/>
<path d="M42.2847 12.4593C42.0524 12.5726 41.5934 13.0316 41.5934 13.1506C41.5934 13.179 41.5084 13.1393 41.412 13.0656C41.038 12.7823 40.732 12.6576 40.3864 12.6576C40.0974 12.652 40.0407 12.669 39.9387 12.7936C39.61 13.2016 40.2107 14.0573 40.9984 14.2953C41.3837 14.4143 41.99 14.3576 42.3074 14.1763C42.755 13.9213 43.1064 13.4 43.163 12.907C43.1914 12.6633 43.18 12.618 43.0497 12.4876C42.8684 12.3063 42.619 12.295 42.2847 12.4593Z" fill="#386193"/>
<path d="M11.7356 17.2647C11.526 17.4744 11.2766 17.9957 11.2766 18.2337C11.2766 18.3301 11.2596 18.3357 11.1236 18.2847C10.8573 18.1771 10.1433 18.1941 9.9053 18.3074C9.4633 18.5284 9.50863 18.9987 10.0016 19.2877C10.3473 19.4861 10.8913 19.6107 11.2143 19.5654C11.526 19.5201 11.9793 19.2934 12.2286 19.0611C12.5573 18.7551 12.7613 17.9674 12.6366 17.5084C12.5006 16.9871 12.1153 16.8851 11.7356 17.2647Z" fill="#386193"/>
<path d="M45.0217 23.022C42.5624 24.1893 40.3637 25.232 40.1371 25.3396L39.7291 25.538L39.2587 24.7673C38.9981 24.3423 38.7034 23.9003 38.5957 23.7756C38.4201 23.5773 38.3861 23.5603 38.0971 23.5603H37.7854L37.0091 24.2233C36.5841 24.5916 36.0684 25.0563 35.8587 25.2546C35.4791 25.6116 35.4734 25.623 35.4734 25.9063C35.4734 26.1556 35.5187 26.2633 35.7851 26.7053C35.9551 26.983 36.0741 27.2323 36.0514 27.255C36.0287 27.2776 35.4621 27.5496 34.7934 27.867C34.0624 28.2126 33.5014 28.513 33.3937 28.6206C33.2237 28.7793 33.2067 28.8303 33.2067 29.1193C33.2067 29.4083 33.2577 29.55 33.6034 30.281C33.8244 30.74 34.0001 31.148 34.0001 31.1876C34.0001 31.2273 33.2294 31.93 32.2887 32.746L30.5831 34.2306L30.3507 33.9813C30.2204 33.8453 29.7897 33.358 29.3931 32.8933L28.6677 32.0603H28.3277H27.9821L27.2057 32.7233C26.7807 33.0916 26.2764 33.5393 26.0837 33.7263C25.7324 34.055 25.7267 34.0663 25.7267 34.361V34.6556L26.8941 36.01C27.5344 36.7523 28.1577 37.4606 28.2767 37.5853L28.4977 37.812L28.4014 38.0953C28.2484 38.5486 28.0897 38.526 26.7184 37.8856C25.5057 37.319 25.2111 37.217 24.6841 37.1773C24.0551 37.1376 23.8057 37.2113 23.5224 37.54C23.2447 37.8516 23.1767 38.084 23.1257 38.8263L23.0917 39.3873L22.3551 38.832C21.9527 38.526 21.2217 37.9593 20.7401 37.574L19.8617 36.877H19.5444C19.2441 36.877 19.2101 36.894 19.0287 37.0923C18.9267 37.2056 18.5641 37.795 18.2297 38.3956C17.6687 39.4043 17.6234 39.512 17.6234 39.7896C17.6234 40.0843 17.6347 40.107 17.9124 40.3563C18.0711 40.498 18.6037 40.9229 19.1024 41.3083C19.5954 41.6879 20.0034 42.0166 20.0034 42.0449C20.0034 42.0789 18.7227 44.4079 18.6774 44.4533C18.6604 44.4703 17.1701 43.0253 14.6711 40.5773L13.9004 39.8236H13.3961H12.8917L11.5997 41.1383C10.8914 41.8636 10.2851 42.5153 10.2567 42.5889C10.1604 42.8099 10.1887 43.4049 10.3021 43.5749C10.4267 43.7676 14.9601 48.1876 15.3341 48.4823C15.4871 48.6069 15.7307 48.7713 15.8781 48.8563C16.1444 49.0093 16.1444 49.0149 16.0651 49.1623C16.0197 49.2473 15.9631 49.3493 15.9291 49.3946C15.8894 49.4569 15.6401 49.3379 14.6881 48.8109C13.6227 48.2216 13.4754 48.1536 13.2204 48.1536C12.9824 48.1536 12.9201 48.1763 12.7671 48.3349C12.6707 48.4369 12.3081 49.0319 11.9624 49.6553C11.3957 50.6809 11.3334 50.8169 11.3334 51.0776C11.3334 51.3156 11.3617 51.3893 11.4864 51.5083C11.5771 51.5876 12.7784 52.2846 14.1667 53.0553C15.5551 53.8259 16.7451 54.4889 16.8074 54.5286C16.9264 54.6079 16.9264 54.6193 16.8471 54.9649C16.7847 55.2313 16.7677 55.5769 16.7847 56.3136C16.8074 57.2543 16.8131 57.3336 16.9831 57.8039C17.2607 58.5916 17.6177 59.1356 18.3771 59.9176C19.1477 60.7166 19.8164 61.2153 20.7514 61.6969C22.7687 62.7339 25.0921 63.2383 28.2371 63.3233C29.5631 63.3573 29.5857 63.3573 29.7161 63.2326L29.8464 63.108L30.6397 63.3063C32.1414 63.6746 33.5751 63.8616 35.6434 63.9693C36.9751 64.0373 39.2531 64.009 40.5564 63.907C43.5654 63.669 45.8717 63.0399 47.3847 62.0369C48.0081 61.6289 48.9997 60.6656 49.2151 60.2633C49.3114 60.0763 49.3511 60.0536 49.5437 60.0536C49.8781 60.0536 51.3004 59.8893 52.0201 59.7646C54.2811 59.3793 56.0604 58.7559 57.3411 57.9003C57.9587 57.4866 58.8144 56.6593 59.1601 56.1436C59.6927 55.3559 59.8967 54.5966 59.8967 53.4066C59.8967 52.1939 59.6927 51.2986 59.1317 50.1029L58.8654 49.5249L59.2961 49.0036C59.5284 48.7146 59.7267 48.4256 59.7381 48.3576C59.7494 48.2669 59.9931 48.1309 60.8431 47.7286C61.4437 47.4453 62.0104 47.1393 62.1067 47.0486C62.2597 46.9013 62.2767 46.8503 62.2767 46.5499C62.2767 46.2156 62.1521 45.9436 56.3777 33.7376C52.2184 24.9373 50.4334 21.2086 50.3031 21.0783C50.1444 20.914 50.0991 20.897 49.8157 20.9026C49.5211 20.9026 49.1924 21.05 45.0217 23.022ZM49.6627 22.5233C50.0764 23.3676 60.8714 46.2099 60.8771 46.2496C60.8827 46.2779 60.4067 46.5273 59.8117 46.8049C58.7237 47.3149 58.3894 47.5473 58.3554 47.7909C58.3441 47.8986 58.2704 47.8306 57.9304 47.3716C57.0861 46.2383 55.6807 44.8329 54.5531 43.9999C53.5727 43.2746 52.8191 42.8326 51.0171 41.9429C50.0481 41.4669 49.2321 41.0419 49.2151 41.0079C49.1924 40.9739 49.3511 40.787 49.5891 40.5716C51.4137 38.9396 52.2241 37.5003 52.3487 35.653L52.3884 35.058L53.3234 37.0583C53.8391 38.1576 54.3321 39.138 54.4227 39.24C54.5587 39.4043 54.6154 39.427 54.8591 39.427C55.0857 39.427 55.2161 39.376 55.6297 39.138C55.9017 38.9793 56.2134 38.7696 56.3154 38.6733C56.6837 38.322 56.8651 38.7696 53.1194 30.5813C50.6941 25.2716 49.6967 23.141 49.5664 23.005C49.4134 22.8463 49.3567 22.8236 49.0961 22.8236C48.9317 22.8236 48.6314 22.8746 48.4217 22.9426C48.2121 23.005 48.0364 23.0503 48.0251 23.039C48.0024 23.022 49.4644 22.3193 49.5324 22.3136C49.5494 22.3136 49.6061 22.41 49.6627 22.5233ZM47.3847 23.4073C47.2884 23.5093 47.2601 23.6113 47.2601 23.8323C47.2601 24.1043 47.4244 24.484 49.1641 28.1956C50.2124 30.4283 51.1077 32.3323 51.1531 32.423C51.2437 32.593 51.2324 32.593 50.9434 32.4003C50.4674 32.083 49.4134 31.8336 48.3764 31.794C47.0787 31.743 46.6367 31.8846 45.9567 32.5646C45.5147 33.0123 45.1804 33.63 45.0161 34.3156C44.9651 34.5423 44.8971 34.7406 44.8687 34.7576C44.7837 34.8143 44.2624 34.667 43.4917 34.3666C43.0894 34.2136 42.4264 33.97 42.0184 33.8283C41.3101 33.579 41.2534 33.5676 40.4997 33.545C39.7461 33.5223 39.7121 33.528 39.4117 33.6696C39.0604 33.8453 38.6864 34.2363 38.5164 34.6103C38.4201 34.82 38.3917 35.0126 38.3747 35.653C38.3351 36.928 38.5107 37.4096 39.2984 38.22L39.7517 38.6903H39.2587C38.6921 38.6903 38.2614 38.7696 37.9384 38.934C37.6211 39.0926 37.0204 39.682 36.8277 40.0276C36.6804 40.2826 36.4651 40.5036 35.8247 41.0419L35.6547 41.1836L34.8954 40.8946C34.4817 40.7303 34.1247 40.583 34.1021 40.566C34.0794 40.5433 34.0907 40.4356 34.1247 40.3166C34.1871 40.1183 34.2041 40.107 34.4307 40.107C34.6631 40.107 34.7197 40.0616 36.0231 38.9396C36.7654 38.2993 37.5077 37.642 37.6721 37.4833C37.9611 37.2 37.9667 37.183 37.9667 36.8656C37.9667 36.5653 37.8987 36.401 37.0261 34.5423C36.5047 33.443 36.0174 32.474 35.9381 32.3833C35.8134 32.253 35.7511 32.2303 35.4791 32.2303L35.1617 32.236L33.4957 33.6866C31.9431 35.041 31.8241 35.1316 31.6767 35.0863C31.5294 35.0353 31.6031 34.9673 33.4447 33.375L35.3601 31.7146V31.3633C35.3544 31.046 35.3147 30.927 34.9691 30.1903L34.5781 29.3686L34.8954 29.2213C36.4707 28.496 37.3377 28.0596 37.4737 27.935C37.5984 27.816 37.6267 27.7423 37.6267 27.51C37.6267 27.3286 37.5871 27.1813 37.5191 27.085C37.4624 27 37.2867 26.7223 37.1281 26.473L36.8391 26.0083L37.3887 25.5323L37.9384 25.0563L38.3917 25.7873C38.6411 26.1953 38.9187 26.609 39.0094 26.7166C39.1567 26.8866 39.1964 26.9036 39.4911 26.9036C39.7914 26.9036 40.0237 26.8016 43.6334 25.0903C45.7357 24.093 47.4697 23.277 47.4811 23.277C47.4981 23.277 47.4527 23.3336 47.3847 23.4073ZM49.1527 33.5336C50.1841 33.8 50.3767 33.9303 50.6034 34.5423C50.7961 35.0466 50.8017 35.4603 50.6431 36.0893C50.3371 37.268 49.8214 38.067 48.5861 39.2853C48.0817 39.784 47.6227 40.2713 47.5774 40.3733C47.4584 40.6113 47.4527 41.4669 47.5661 41.6879C47.6114 41.7729 47.8097 41.9883 48.0024 42.1696C48.3027 42.4473 48.5861 42.6116 50.1161 43.3653C51.0851 43.8413 52.2014 44.4363 52.5924 44.6799C54.4907 45.8756 55.7601 47.0996 56.9954 48.9469C57.9361 50.3523 58.5651 51.8086 58.7124 52.9533C58.7747 53.4009 58.7691 53.5369 58.6841 53.9619C58.4687 55.0669 57.9304 55.9169 57.0124 56.5913C55.9357 57.3789 54.4057 58.0079 52.5811 58.4103C51.8557 58.5689 50.4731 58.8069 50.2634 58.8069C50.1897 58.8069 50.1784 58.6709 50.1784 57.9399C50.1727 56.6763 49.9574 55.8546 49.2887 54.5399C48.0987 52.2053 46.0587 50.0689 43.6164 48.6126C43.3444 48.4483 42.4944 48.0063 41.7237 47.6379L40.3297 46.9579L40.8737 46.4479C41.1741 46.1703 41.5877 45.7339 41.7974 45.4846C42.0977 45.1219 42.4207 44.8443 43.3161 44.1699C44.8234 43.0479 44.8234 43.0479 44.8234 42.6909C44.8234 42.0279 44.2907 41.9146 43.2254 42.3453C43.1347 42.3793 43.1234 42.3396 43.1234 41.8749V41.3593L43.4521 41.2686C44.1717 41.0703 44.4551 40.9343 44.7554 40.6566L45.0501 40.3733V39.9426V39.5063L44.8121 39.274C44.5061 38.9793 44.3134 38.8886 43.2651 38.526C42.8004 38.3616 42.0864 38.067 41.6784 37.8686C40.5847 37.3303 40.1767 36.9223 39.9841 36.18C39.9104 35.8966 39.9104 35.823 39.9841 35.534C40.0294 35.3526 40.0974 35.1883 40.1371 35.16C40.2107 35.1146 40.7887 35.1486 40.8454 35.2053C40.8624 35.2223 40.8454 35.2676 40.8114 35.3016C40.7717 35.3413 40.7434 35.5 40.7434 35.6586C40.7434 35.891 40.7774 35.9986 40.9077 36.1743C41.1797 36.5426 41.3611 36.673 42.2734 37.1433L43.1517 37.6023L44.1207 37.6703C45.0444 37.7383 45.1351 37.7383 45.9341 37.6136C46.6481 37.506 46.8011 37.4606 46.9314 37.3473C47.1071 37.183 47.2034 36.843 47.2034 36.3896C47.2034 36.112 47.1807 36.0383 47.0504 35.9023C46.9201 35.7663 46.8521 35.7436 46.5971 35.7436C46.3024 35.7436 46.2401 35.7096 46.3534 35.5963C46.3874 35.5623 46.4781 35.296 46.5517 35.0013C46.7274 34.3383 46.9881 33.8 47.2034 33.647C47.6624 33.3183 48.2007 33.29 49.1527 33.5336ZM28.9851 34.3043C29.3817 34.7576 29.6991 35.1316 29.6877 35.143C29.2174 35.4716 29.0304 35.6303 28.8661 35.8343C28.7527 35.9703 28.6451 36.0836 28.6224 36.0836C28.5657 36.0836 27.2001 34.4743 27.2114 34.412C27.2171 34.3496 28.1691 33.4883 28.2314 33.4826C28.2484 33.477 28.5941 33.851 28.9851 34.3043ZM35.9381 35.2166C36.3007 35.993 36.6067 36.656 36.6181 36.6956C36.6294 36.7353 36.1364 37.2 35.5301 37.727L34.4251 38.6846L34.2551 38.5203C34.1587 38.424 34.0341 38.3503 33.9831 38.3503C33.9037 38.3503 33.8867 38.2936 33.8867 38.0386C33.8867 37.3133 33.6544 36.741 33.1614 36.2366C32.8441 35.9136 32.8441 35.9136 32.9517 35.8003C33.1501 35.6076 35.2184 33.817 35.2467 33.817C35.2637 33.817 35.5754 34.446 35.9381 35.2166ZM31.6484 36.8146C32.2377 37.013 32.3964 37.149 32.5834 37.6476C32.8157 38.271 32.7987 38.9226 32.5211 39.8633L32.3964 40.277H32.0791C31.6484 40.2826 31.3651 40.4186 31.0137 40.8096C30.6284 41.2346 30.5434 41.5066 30.5434 42.3736C30.5434 42.9573 30.5264 43.0593 30.4301 43.1839C30.3677 43.2633 30.2657 43.4389 30.2034 43.5749C30.0617 43.8866 30.0504 44.6176 30.1807 44.9009C30.3224 45.1956 31.0307 45.8303 31.6087 46.1646C31.8977 46.3346 32.1301 46.4876 32.1301 46.5046C32.1301 46.5216 32.0054 46.6009 31.8581 46.6746C31.0817 47.0599 30.1354 47.8703 29.4327 48.7429C29.2287 48.9979 28.6847 49.7629 28.2257 50.4486C27.0244 52.2279 26.6901 52.6416 25.5057 53.8203C24.3214 54.9933 23.9871 55.4409 23.7207 56.1946C23.5621 56.6536 23.5507 56.7329 23.5451 57.5319C23.5451 58.4329 23.6357 58.8806 23.9247 59.4586C24.2817 60.1556 25.2054 61.1813 25.9704 61.7196C26.1801 61.8726 26.3444 62.0029 26.3387 62.0143C26.3047 62.0483 24.7237 61.7593 24.1627 61.6176C21.7544 61.0056 19.8221 59.9176 18.8757 58.6483C18.3034 57.8776 17.9067 56.8349 17.9067 56.1096C17.9067 55.7129 18.0937 55.0103 18.3317 54.5286C18.5414 54.1036 18.8247 53.7239 19.6237 52.7889C20.2074 52.1033 20.9101 51.0946 21.4031 50.2219L21.7601 49.5986V49.8593C21.7601 50.0746 21.7884 50.1426 21.9471 50.2899C22.1794 50.5109 22.4231 50.5903 22.8651 50.5903C23.1824 50.5903 23.2277 50.5733 23.3864 50.4033C23.8114 49.9499 24.3724 49.0546 24.7861 48.1593C25.1601 47.3546 25.2677 47.1789 25.6134 46.7936C25.9874 46.3799 26.0101 46.3403 26.0101 46.0796C26.0101 45.8643 25.9817 45.7793 25.8571 45.6489C25.7324 45.5186 25.6587 45.4903 25.4264 45.4903C25.1941 45.4903 25.0411 45.5469 24.4914 45.8359C24.1344 46.0286 23.8567 46.1589 23.8794 46.1249C23.8964 46.0909 24.1287 45.9039 24.3837 45.7113C24.9787 45.2636 25.6757 44.9236 26.6051 44.6289C27.5797 44.3229 27.8801 44.1756 28.1917 43.8413C28.4467 43.5693 28.4467 43.5693 28.4467 43.1556V42.7476L28.1181 42.4303C27.8574 42.1809 27.6761 42.0676 27.2001 41.8693C25.4944 41.1496 24.8597 40.702 24.5197 39.988C24.3667 39.6536 24.2534 39.1493 24.2931 38.9566C24.3611 38.6053 24.4404 38.3503 24.4801 38.3503C24.5311 38.3503 24.9787 38.492 25.1827 38.5713L25.3471 38.6393L25.2224 38.764C25.1317 38.866 25.1034 38.968 25.1034 39.1776C25.1091 39.444 25.1204 39.4723 25.5454 39.92L25.9817 40.379L26.8317 40.7246C27.8574 41.144 28.0047 41.1553 28.9794 40.8776C29.4724 40.7359 29.6934 40.6396 29.8181 40.5206C29.9767 40.3676 29.9881 40.345 29.9654 39.954C29.9484 39.5913 29.9257 39.5233 29.7784 39.3703C29.6651 39.2513 29.5631 39.2003 29.4271 39.2003H29.2457L29.3817 38.9963C29.5234 38.7866 29.5461 38.7243 29.7217 37.9366C29.7727 37.6986 29.8917 37.3416 29.9881 37.1546C30.2884 36.554 30.6511 36.4803 31.6484 36.8146ZM20.5531 39.019C20.9837 39.359 21.7317 39.9313 22.2191 40.294C22.8084 40.7303 23.1824 41.0589 23.3467 41.2686C23.8397 41.9089 24.6217 42.5323 25.3981 42.9006C25.6077 43.0026 25.7834 43.0989 25.7834 43.1159C25.7834 43.1386 25.7154 43.1726 25.6304 43.1953C25.5397 43.2123 25.2451 43.3199 24.9731 43.4333C24.5537 43.6033 24.4517 43.6259 24.3497 43.5693C24.2817 43.5296 23.8114 43.2123 23.3014 42.8553C22.4004 42.2206 22.3664 42.2036 22.0717 42.2036C21.8054 42.2036 21.7544 42.2206 21.6127 42.3906C21.5221 42.4926 20.9044 43.5466 20.2471 44.7366C19.0571 46.8616 19.0401 46.9013 19.0401 47.2299C19.0401 47.5189 19.0741 47.6209 19.2837 47.9893C19.4197 48.2216 19.6521 48.5729 19.7994 48.7713L20.0771 49.1283L19.9524 49.3833L19.8334 49.6326L19.6181 49.4683C19.5047 49.3776 19.2497 49.2019 19.0571 49.0716C18.7567 48.8676 18.6661 48.8336 18.4054 48.8336C18.1334 48.8336 18.0767 48.8563 17.9237 49.0149C17.8274 49.1169 17.5554 49.5533 17.3174 49.9839C16.9321 50.6809 16.8867 50.7886 16.8867 51.0663C16.8867 51.3439 16.9037 51.3893 17.0851 51.5479C17.1984 51.6443 17.4081 51.7859 17.5554 51.8596C18.0597 52.1203 18.0597 52.0976 17.6744 52.5453C17.4874 52.7606 17.2891 53.0099 17.2381 53.1006C17.1871 53.1856 17.1304 53.2479 17.1077 53.2423C16.8471 53.1289 12.8067 50.8283 12.8067 50.7886C12.8124 50.7546 12.9597 50.4713 13.1354 50.1539L13.4641 49.5816L14.6711 50.2559C16.3994 51.2193 16.3654 51.2249 17.1361 49.8479C17.5271 49.1509 17.5667 49.0546 17.5667 48.7713C17.5667 48.4936 17.5441 48.4426 17.3854 48.2839C17.2834 48.1876 17.0341 48.0233 16.8301 47.9269C16.1274 47.5756 15.7704 47.2696 13.6454 45.1899C12.4667 44.0396 11.4921 43.0819 11.4807 43.0649C11.4694 43.0423 11.9001 42.5776 12.4384 42.0279L13.4131 41.0363L15.6571 43.2463C16.8867 44.4646 17.9577 45.5526 18.0257 45.6603C18.3034 46.0966 18.4111 46.1703 18.7567 46.1703C19.0344 46.1703 19.0967 46.1476 19.2214 46.0116C19.3007 45.9266 19.8277 45.0256 20.3944 44.0056C21.3351 42.3056 21.4201 42.1356 21.4201 41.8749C21.4201 41.6143 21.4031 41.5803 21.1197 41.3196C20.9554 41.1666 20.4057 40.7246 19.9014 40.3393C19.0231 39.6706 18.9834 39.6366 19.0571 39.5176C19.1024 39.4553 19.2554 39.1776 19.4027 38.9C19.5501 38.628 19.6974 38.407 19.7257 38.407C19.7541 38.407 20.1281 38.6846 20.5531 39.019ZM40.0577 40.4186C40.8341 40.6056 41.0947 40.7303 41.2364 40.9626C41.3837 41.2006 41.5367 41.7106 41.5367 41.9486C41.5367 42.2999 41.3101 43.0309 41.0267 43.5919C40.6811 44.2776 40.2107 44.8669 39.5194 45.4789C39.2361 45.7283 38.9244 46.0569 38.8281 46.1986C38.6297 46.4989 38.5561 46.9183 38.6184 47.3433C38.6524 47.5756 38.7091 47.6606 39.0377 47.9893C39.4004 48.3519 39.5024 48.4143 40.9191 49.1056C42.6191 49.9443 43.3897 50.3919 44.2964 51.0776C46.4497 52.7039 48.2687 55.4693 48.5691 57.5659C48.6597 58.1836 48.5521 58.7389 48.2121 59.4189C47.6851 60.4899 46.5291 61.2889 44.6081 61.9236C41.0324 63.1023 35.1504 63.1873 31.0251 62.1219C28.8717 61.5666 27.1661 60.7223 26.1744 59.7193C25.8457 59.3793 25.6814 59.1639 25.4831 58.7616C25.0127 57.8209 25.0071 57.3279 25.4491 56.4326C25.6644 55.9963 25.7721 55.8716 26.8091 54.8346C27.7894 53.8599 27.9197 53.7466 27.8007 53.9846C27.5231 54.5286 27.2567 55.4013 27.2567 55.7639C27.2567 56.0586 27.2794 56.1323 27.4097 56.2683C27.5344 56.4043 27.6081 56.4269 27.8517 56.4269C28.0954 56.4269 28.1634 56.4043 28.2881 56.2683C28.3674 56.1833 28.9057 55.4466 29.4894 54.6306C30.4641 53.2649 30.6114 53.0836 31.2971 52.4376C31.9544 51.8143 32.2264 51.6103 33.5751 50.7263C36.3461 48.9129 36.3801 48.8903 36.3801 48.4709C36.3801 48.2386 36.3517 48.1593 36.2271 48.0289C36.1024 47.8986 36.0287 47.8703 35.8021 47.8703C35.4451 47.8703 34.6631 48.1593 33.5184 48.7203C32.0621 49.4286 31.0137 50.1426 29.9994 51.1116L29.4497 51.6386L29.7274 51.2136C31.0081 49.2529 31.5464 48.7033 32.7817 48.0856C33.2861 47.8306 33.8301 47.6436 34.8217 47.3886C35.8191 47.1279 36.0571 47.0203 36.3971 46.6916L36.6634 46.4309V46.0286V45.6263L36.3971 45.3656C36.1137 45.0879 35.9551 45.0143 34.8501 44.6289C34.0511 44.3513 33.1614 43.9206 32.7817 43.6316C32.2661 43.2406 31.9884 42.4643 32.1981 42.0053C32.2491 41.8919 32.3001 41.8636 32.4531 41.8636C32.6967 41.8636 33.7847 42.2206 33.6317 42.2489C33.5694 42.2603 33.4504 42.3396 33.3654 42.4189C33.2294 42.5436 33.2067 42.6116 33.2067 42.8553C33.2067 43.1103 33.2294 43.1669 33.3937 43.3199C33.6657 43.5863 34.3627 43.9943 34.8784 44.1926C35.9947 44.6289 37.3944 44.6346 38.3464 44.2096C38.8111 44.0056 39.3211 43.6203 39.7631 43.1386C40.2674 42.5946 40.4601 42.2206 40.4601 41.8069C40.4601 41.5406 40.4374 41.4783 40.2787 41.3139C40.1201 41.1496 40.0634 41.1269 39.7914 41.1269H39.4854L38.9697 41.6426C38.5787 42.0279 38.3464 42.2036 38.0461 42.3509C37.8251 42.4586 37.6267 42.5436 37.6041 42.5436C37.5814 42.5436 37.6267 42.4643 37.7061 42.3736C37.7854 42.2773 37.8761 42.0903 37.9101 41.9599C38.1821 40.9173 38.3351 40.6113 38.6694 40.4526C39.1397 40.2316 39.2757 40.2316 40.0577 40.4186ZM23.3241 44.4023L23.6641 44.6403L23.0917 45.2239C22.4684 45.8586 22.0264 46.4706 21.4484 47.5019C21.2444 47.8759 21.0517 48.2046 21.0234 48.2329C20.9724 48.2839 20.4397 47.5189 20.3717 47.2979C20.3434 47.2186 20.6097 46.6859 21.3124 45.4336L22.2871 43.6769L22.6327 43.9206C22.8254 44.0566 23.1314 44.2719 23.3241 44.4023ZM32.4304 44.9236C32.8101 45.1786 33.5127 45.4959 34.3117 45.7736C34.6857 45.9039 34.9974 46.0173 35.0087 46.0286C35.0201 46.0343 34.8161 46.0966 34.5611 46.1703L34.1021 46.2949L33.9377 46.1363C33.8471 46.0513 33.2577 45.6659 32.6231 45.2919C31.3991 44.5553 31.2064 44.3796 31.3367 44.1246C31.4047 44.0056 31.4161 44.0169 31.7844 44.3683C31.9884 44.5723 32.2831 44.8216 32.4304 44.9236ZM23.1767 47.4396C22.8991 48.0856 22.7687 48.3066 22.4061 48.7543C22.1681 49.0489 21.9584 49.2869 21.9471 49.2869C21.9187 49.2869 22.3097 48.5559 22.6837 47.8986C23.0124 47.3263 23.4714 46.6179 23.4941 46.6406C23.5054 46.6519 23.3637 47.0089 23.1767 47.4396ZM19.0401 50.6016C19.2554 50.7659 19.4311 50.9246 19.4367 50.9473C19.4367 50.9756 19.3857 51.0719 19.3177 51.1626L19.2044 51.3269L18.9381 51.1739C18.7907 51.0946 18.5924 50.9756 18.4904 50.9189L18.3147 50.8113L18.4564 50.5619C18.5301 50.4203 18.6094 50.3069 18.6264 50.3069C18.6377 50.3069 18.8304 50.4429 19.0401 50.6016Z" fill="#386193"/>
<path d="M55.8564 39.138C55.6467 39.257 55.3974 39.427 55.3011 39.5177C55.1537 39.6594 55.1367 39.7104 55.1367 40.0107C55.1367 40.294 55.1991 40.5037 55.5107 41.2914C55.9471 42.4077 56.0547 42.5437 56.4571 42.5437C56.8084 42.5437 57.5734 42.2207 57.8397 41.9657C58.0041 41.807 58.0267 41.7504 58.0267 41.4954C58.0267 41.246 57.9587 41.0534 57.5451 40.192C57.2844 39.6367 57.0124 39.1267 56.9444 39.053C56.7404 38.832 56.3381 38.866 55.8564 39.138Z" fill="#386193"/>
<path d="M65.3139 27.493C65.1213 27.68 65.0249 28.1786 65.1043 28.6093C65.1836 29.0626 65.3083 29.312 65.6143 29.601C65.9939 29.9693 66.1923 30.043 66.7249 30.043C67.4786 30.0373 67.9999 29.737 67.9999 29.3006C67.9999 28.9096 67.4786 28.6716 66.7759 28.734L66.4133 28.768V28.5526C66.4133 28.0086 65.9883 27.357 65.6256 27.357C65.5123 27.357 65.3933 27.408 65.3139 27.493Z" fill="#386193"/>
<path d="M3.74569 34.5877C3.53035 34.7407 3.34335 35.211 3.34335 35.6133V35.9703H3.04302C2.65202 35.9703 2.20435 36.1063 1.98335 36.2877C1.85302 36.401 1.81335 36.4803 1.81335 36.6447C1.81335 37.0357 2.22702 37.2737 2.90702 37.2737C3.46802 37.2737 3.76269 37.1603 4.14802 36.8033C4.54469 36.435 4.68069 36.0553 4.62969 35.4547C4.56735 34.684 4.16502 34.293 3.74569 34.5877Z" fill="#386193"/>
<path d="M61.2114 52.4604C61.013 52.5794 60.843 52.6871 60.826 52.7041C60.809 52.7154 60.826 52.8968 60.8657 53.1008L60.9337 53.4691L61.336 53.5824C61.557 53.6448 61.9707 53.7298 62.2484 53.7638C62.5317 53.7978 62.8037 53.8431 62.8604 53.8544C62.9454 53.8828 62.9567 53.8318 62.9567 53.4011V52.9138L62.2767 52.5738C61.9027 52.3868 61.591 52.2338 61.5854 52.2394C61.574 52.2394 61.4097 52.3414 61.2114 52.4604Z" fill="#386193"/>
<path d="M13.3053 54.7893L12.5233 55.1803V55.7639V56.3533L13.396 56.2229C13.8776 56.1549 14.4386 56.0416 14.637 55.9793L14.994 55.8603L15.0733 55.4013C15.1356 55.0103 15.1356 54.9309 15.0676 54.8913C14.8523 54.7496 14.1723 54.3869 14.1326 54.3926C14.1043 54.3926 13.7303 54.5683 13.3053 54.7893Z" fill="#386193"/>
<path d="M1.07667 57.1693C0.748 57.294 0.464667 57.4186 0.442 57.4413C0.391 57.4866 0 59.198 0 59.3566C0 59.4473 0.158667 59.4983 0.974667 59.7023C1.50733 59.8383 1.96633 59.9233 1.989 59.9006C2.057 59.827 2.83333 58.3366 2.83333 58.28C2.83333 58.212 1.768 56.937 1.71133 56.9426C1.68867 56.9426 1.40533 57.0446 1.07667 57.1693Z" fill="#386193"/>
<path d="M60.0157 58.2404C59.7607 58.3878 59.534 58.5238 59.5227 58.5408C59.4944 58.5691 59.5397 58.8638 59.6417 59.3568C59.6814 59.5268 60.1857 59.6798 61.1887 59.8271C61.6364 59.8894 62.0274 59.9404 62.0557 59.9404C62.084 59.9404 62.1067 59.6798 62.1067 59.3568V58.7788L61.2964 58.3708L60.486 57.9684L60.0157 58.2404Z" fill="#386193"/>
<path d="M7.10035 58.4557L6.34668 58.8354V59.4134C6.34668 59.8837 6.36368 59.9971 6.42601 59.9971C6.89635 59.9971 8.78335 59.6117 8.78335 59.5154C8.78335 59.5041 8.82301 59.3001 8.86835 59.0564C8.93635 58.7051 8.93635 58.6031 8.87968 58.5691C8.63035 58.3991 7.99001 58.0704 7.92768 58.0761C7.88235 58.0761 7.50835 58.2461 7.10035 58.4557Z" fill="#386193"/>
<path d="M12.6933 59.7931L11.7583 60.0311L11.4353 60.9887C11.254 61.5101 11.118 61.9577 11.135 61.9691C11.1633 61.9974 14.0136 62.4904 14.0363 62.4677C14.11 62.3997 15.3 60.8811 15.3 60.8527C15.3 60.8017 13.8096 59.6117 13.7076 59.5777C13.6623 59.5664 13.209 59.6627 12.6933 59.7931Z" fill="#386193"/>
<path d="M51.6403 62.0541L50.83 62.4621V63.0401C50.83 63.3631 50.8413 63.6238 50.8526 63.6238C51.085 63.6238 52.5526 63.3688 52.853 63.2781L53.261 63.1534L53.3233 62.8361C53.3573 62.6604 53.397 62.4508 53.414 62.3658C53.4423 62.2298 53.4026 62.1958 52.955 61.9294C52.683 61.7708 52.4563 61.6404 52.4563 61.6461C52.4506 61.6461 52.0823 61.8274 51.6403 62.0541Z" fill="#386193"/>
<path d="M6.57327 61.9861C6.12561 62.1391 5.72327 62.2977 5.68927 62.3317C5.58727 62.4394 5.04327 64.7571 5.11694 64.7571C5.12827 64.7571 5.68927 64.8817 6.36927 65.0404C7.04927 65.1934 7.63861 65.3237 7.67827 65.3237C7.74627 65.3237 8.89661 63.4311 8.89661 63.3234C8.89661 63.2781 7.47994 61.7311 7.42894 61.7141C7.41194 61.7084 7.02661 61.8331 6.57327 61.9861Z" fill="#386193"/>
<path d="M59.245 61.9973C58.4517 62.0937 58.2533 62.0993 57.6583 62.0427C56.525 61.935 56.3777 61.9463 56.1737 62.1617C56.0263 62.3203 55.981 62.445 55.879 62.938C55.811 63.261 55.76 63.6577 55.76 63.8163C55.76 64.077 55.7827 64.1337 55.947 64.2867C56.0433 64.383 56.5193 64.655 57.001 64.8987L57.868 65.3293L58.8993 65.471C60.452 65.675 60.4463 65.675 61.2623 65.2387L61.9423 64.8703H62.5373H63.1267L63.5347 64.6097C63.7613 64.468 64.0447 64.2583 64.1637 64.145C64.3677 63.9467 64.3733 63.9297 64.3733 63.55C64.3733 62.8927 64.2657 62.4337 64.0673 62.2183C63.852 61.986 63.6933 61.986 62.5883 62.1843L61.778 62.3317L61.353 62.0993C60.9677 61.884 60.8997 61.867 60.5427 61.8727C60.3273 61.8783 59.7437 61.935 59.245 61.9973Z" fill="#386193"/>
<path d="M18.3656 63.2271L16.2519 63.3291L16.0933 63.4877C15.9686 63.6181 15.8893 63.8164 15.7306 64.4057C15.6173 64.8194 15.5266 65.2897 15.5266 65.4541C15.5266 65.9301 15.6569 66.0207 17.0849 66.5081C17.8953 66.7857 18.3543 66.9104 18.5299 66.9104C18.6943 66.9104 19.0739 66.7971 19.5896 66.6044L20.3999 66.3041L21.3859 66.8594C22.6553 67.5791 22.6043 67.5791 23.7093 66.9954C24.1513 66.7687 24.5763 66.5024 24.6556 66.4174C24.8313 66.2304 25.2166 64.9271 25.2166 64.5247C25.2166 64.3151 25.1883 64.2414 25.0466 64.1054L24.8823 63.9467L23.6639 63.9807L22.4456 64.0091L22.3493 63.8617C22.2926 63.7767 22.1226 63.5727 21.9696 63.4084L21.6863 63.1137L21.0856 63.1194C20.7569 63.1251 19.5329 63.1761 18.3656 63.2271Z" fill="#386193"/>
<path d="M45.8263 63.7994L45.0443 64.1904L45.0613 64.7967L45.0783 65.403L45.543 65.6694C45.8036 65.8224 46.1776 66.032 46.3816 66.1454L46.7443 66.3494L47.107 65.624C47.379 65.0914 47.4923 64.791 47.5433 64.485C47.5773 64.2584 47.6 64.0374 47.583 63.9977C47.5603 63.9354 46.682 63.3914 46.6253 63.4027C46.614 63.4027 46.257 63.5784 45.8263 63.7994Z" fill="#386193"/>
<path d="M26.9904 64.2356C26.9224 64.2469 26.7694 64.3602 26.6447 64.4962L26.4237 64.7342L26.3897 66.6779C26.35 68.8426 26.35 68.8482 26.7127 69.1656L26.9224 69.3469L29.9087 69.3582C34.7367 69.3866 34.459 69.4092 36.2384 68.8086C37.706 68.3156 38.488 68.1966 40.7547 68.1116L41.8144 68.0719L42.0467 67.8452L42.2734 67.6242V66.8252V66.0262L42.0637 65.8222L41.8484 65.6182L40.6867 65.5559C39.338 65.4766 38.199 65.3632 37.6154 65.2386C37.3887 65.1932 36.7257 64.9892 36.142 64.7909C34.561 64.2412 34.697 64.2526 30.6284 64.2356C28.696 64.2242 27.0584 64.2242 26.9904 64.2356Z" fill="#386193"/>
<path d="M50.252 66.2927L49.47 66.6837V67.2503C49.47 67.919 49.3567 67.868 50.473 67.7037C51.2664 67.5847 51.7707 67.46 51.884 67.341C51.9464 67.2787 52.1107 66.4683 52.071 66.4287C51.9917 66.355 51.153 65.8903 51.0964 65.896C51.0567 65.896 50.677 66.0717 50.252 66.2927Z" fill="#386193"/>
<path d="M43.8203 68.1174L43.1233 68.3497V68.7294V69.1034L43.9223 69.3924C44.676 69.67 44.7326 69.6814 44.795 69.5907C44.8346 69.534 44.9876 69.3357 45.1293 69.1487C45.3843 68.8257 45.6053 68.2874 45.5203 68.2137C45.4523 68.157 44.659 67.8737 44.5796 67.8794C44.54 67.8794 44.2 67.987 43.8203 68.1174Z" fill="#386193"/>
</svg>
