<svg width="76" height="76" viewBox="0 0 76 76" fill="none" xmlns="http://www.w3.org/2000/svg">
<path d="M21.9016 6.13531C21.59 6.44131 21.8053 7.34231 22.304 7.81831C22.61 8.10731 23.2276 8.33397 23.5733 8.28864C23.919 8.23764 24.412 8.01097 24.6386 7.78997C25.0126 7.43297 25.0863 7.10431 24.8483 6.87197C24.6443 6.66231 24.123 6.67364 23.6526 6.89464L23.307 7.05897L23.2106 6.86631C23.086 6.59431 22.6723 6.16364 22.457 6.07297C22.1906 5.95964 22.0546 5.97664 21.9016 6.13531Z" fill="#386193"/>
<path d="M52.0315 9.03661C51.7425 9.14995 51.6348 10.0849 51.8502 10.6516C51.9578 10.9519 52.3488 11.3883 52.6435 11.5469C52.9948 11.7339 53.7995 11.7113 54.2245 11.4959C54.4908 11.3599 54.6155 11.2126 54.6608 10.9916C54.6892 10.8443 54.6665 10.7876 54.5305 10.6459C54.3152 10.4306 53.9582 10.3399 53.4822 10.3739L53.1025 10.3966L53.0628 10.1359C52.9552 9.37661 52.4678 8.86095 52.0315 9.03661Z" fill="#386193"/>
<path d="M42.2847 12.4593C42.0524 12.5726 41.5934 13.0316 41.5934 13.1506C41.5934 13.179 41.5084 13.1393 41.412 13.0656C41.038 12.7823 40.732 12.6576 40.3864 12.6576C40.0974 12.652 40.0407 12.669 39.9387 12.7936C39.61 13.2016 40.2107 14.0573 40.9984 14.2953C41.3837 14.4143 41.99 14.3576 42.3074 14.1763C42.755 13.9213 43.1064 13.4 43.163 12.907C43.1914 12.6633 43.18 12.618 43.0497 12.4876C42.8684 12.3063 42.619 12.295 42.2847 12.4593Z" fill="#386193"/>
<path d="M11.7356 17.2647C11.526 17.4744 11.2766 17.9957 11.2766 18.2337C11.2766 18.3301 11.2596 18.3357 11.1236 18.2847C10.8573 18.1771 10.1433 18.1941 9.9053 18.3074C9.4633 18.5284 9.50863 18.9987 10.0016 19.2877C10.3473 19.4861 10.8913 19.6107 11.2143 19.5654C11.526 19.5201 11.9793 19.2934 12.2286 19.0611C12.5573 18.7551 12.7613 17.9674 12.6366 17.5084C12.5006 16.9871 12.1153 16.8851 11.7356 17.2647Z" fill="#386193"/>
<path d="M44.6534 23.9002C39.6214 26.2915 39.5251 26.3312 39.4288 26.2235C39.3778 26.1612 39.0718 25.6795 38.7544 25.1582C38.4371 24.6369 38.1538 24.1892 38.1311 24.1609C38.0914 24.1212 36.3008 25.6059 36.1081 25.8439C36.0571 25.9062 36.1478 26.0932 36.5274 26.6995C36.7938 27.1302 36.9921 27.4985 36.9694 27.5269C36.9411 27.5495 36.2214 27.8952 35.3658 28.2975C34.5158 28.6999 33.8074 29.0512 33.7904 29.0852C33.7791 29.1192 34.0001 29.6405 34.2834 30.2355C34.5611 30.8362 34.7934 31.3462 34.7878 31.3689C34.7878 31.3915 34.1418 31.9639 33.3598 32.6382C32.5721 33.3182 31.6088 34.1512 31.2178 34.4912L30.5038 35.1089L29.4328 33.8679C28.8434 33.1879 28.3391 32.6269 28.3108 32.6269C28.2654 32.6269 26.3784 34.2362 26.3218 34.3269C26.2934 34.3722 28.6848 37.1715 28.7754 37.2055C28.7981 37.2112 28.8888 37.0525 28.9794 36.8429C29.2968 36.1175 29.8748 35.6642 30.5718 35.5905C30.8211 35.5622 31.4048 35.6472 31.8808 35.7775C31.9714 35.8002 32.3511 35.4999 33.7394 34.2985C34.6971 33.4655 35.4848 32.7912 35.4961 32.8025C35.5471 32.8762 37.4001 36.8372 37.4001 36.8769C37.4001 36.8995 36.7201 37.5115 35.8871 38.2369L34.3684 39.5515L34.0738 39.2229C33.7451 38.8602 33.7621 38.8489 33.6658 39.4665C33.6318 39.6932 33.5298 40.1125 33.4334 40.4015C33.3428 40.6905 33.2804 40.9342 33.2918 40.9455C33.3258 40.9852 34.8558 41.5632 35.3658 41.7389L35.8021 41.8805L36.4878 41.2912C37.0091 40.8435 37.2244 40.6169 37.3831 40.3392C37.6494 39.8915 37.9951 39.5799 38.4144 39.4212C38.8848 39.2342 39.6724 39.2455 40.4488 39.4495C41.3101 39.6705 41.5481 39.7895 41.9051 40.1749L42.2111 40.5092L42.6814 40.3902C42.9421 40.3222 43.3558 40.2032 43.5994 40.1239C44.1321 39.9482 44.1264 39.9312 43.3331 39.6535C41.7238 39.0812 41.0494 38.7865 40.4318 38.3785C39.4231 37.7099 38.9301 36.8769 38.9301 35.8569C38.9301 35.2165 39.0888 34.7462 39.4004 34.4572C39.7348 34.1512 39.9784 34.0775 40.5394 34.1172C41.0608 34.1569 41.5424 34.3042 43.0668 34.8822C44.2511 35.3355 44.7384 35.4489 45.0954 35.3469C45.3788 35.2732 45.4298 35.1882 45.6394 34.4459C45.8434 33.7319 46.0758 33.3069 46.4724 32.9385C46.9768 32.4795 47.2941 32.3719 48.1668 32.3775C48.7731 32.3832 48.9714 32.4059 49.5381 32.5589C50.3371 32.7742 50.6998 32.9499 51.0284 33.2785C51.8048 34.0492 51.9804 35.4092 51.5044 36.8485C51.1361 37.9479 50.5184 38.8432 49.4078 39.8915C48.9998 40.2769 48.6201 40.6679 48.5578 40.7642C48.2688 41.2345 48.4444 41.3819 50.6204 42.4529C52.4734 43.3652 53.4198 43.9205 54.4001 44.6685C55.1481 45.2465 56.3211 46.3742 56.9218 47.1052C57.3298 47.5982 58.2534 48.8902 58.3328 49.0772C58.3611 49.1509 58.5594 48.9469 58.9504 48.4425L59.1828 48.1422L59.0524 48.0345L58.9221 47.9269L59.2224 47.7909C60.4181 47.2525 61.6818 46.6235 61.6931 46.5555C61.7158 46.4592 49.9121 21.5032 49.8384 21.4862C49.8044 21.4805 47.4754 22.5629 44.6534 23.9002ZM51.7764 29.1759C53.2214 32.3322 54.7458 35.6699 55.1594 36.5765L55.9188 38.2369L55.4088 38.5259C55.1254 38.6902 54.8818 38.7979 54.8534 38.7695C54.7571 38.6675 47.8268 23.8265 47.8551 23.7925C47.9061 23.7472 49.0338 23.3959 49.0961 23.4129C49.1244 23.4185 50.3314 26.0139 51.7764 29.1759ZM56.9841 40.4809C57.2278 41.0022 57.4431 41.4442 57.4488 41.4725C57.4658 41.5179 56.9954 41.7559 56.5761 41.9202C56.4628 41.9655 56.4288 41.8975 56.0718 40.9739C55.7034 40.0275 55.6864 39.9765 55.7941 39.9142C56.2531 39.6422 56.4174 39.5515 56.4741 39.5459C56.5081 39.5402 56.7348 39.9652 56.9841 40.4809Z" fill="#386193"/>
<path d="M65.3139 27.493C65.1213 27.68 65.0249 28.1786 65.1043 28.6093C65.1836 29.0626 65.3083 29.312 65.6143 29.601C65.9939 29.9693 66.1923 30.043 66.7249 30.043C67.4786 30.0373 67.9999 29.737 67.9999 29.3006C67.9999 28.9096 67.4786 28.6716 66.7759 28.734L66.4133 28.768V28.5526C66.4133 28.0086 65.9883 27.357 65.6256 27.357C65.5123 27.357 65.3933 27.408 65.3139 27.493Z" fill="#386193"/>
<path d="M47.5433 32.8142C47.1183 32.9162 46.9313 33.0238 46.6423 33.3355C46.3533 33.6472 46.121 34.1345 45.985 34.7238C45.8603 35.2622 45.679 35.5512 45.373 35.6928C44.8686 35.9195 44.3586 35.8232 42.6586 35.1715C40.7603 34.4462 40.1256 34.3498 39.695 34.7295C39.4343 34.9618 39.355 35.2168 39.355 35.8855C39.355 36.5315 39.4456 36.7922 39.8366 37.3078C40.307 37.9312 41.3553 38.5205 43.0213 39.1042C44.2793 39.5518 44.4833 39.6652 44.4833 39.9372C44.4833 40.2375 44.183 40.4018 43.1006 40.7078C42.7266 40.8155 42.415 40.9118 42.398 40.9232C42.3866 40.9402 42.4093 41.0478 42.449 41.1668C42.568 41.4955 42.5396 42.4815 42.398 42.9688C42.3356 43.1842 42.2903 43.3712 42.3016 43.3825C42.313 43.3995 42.5453 43.3088 42.8173 43.1955C43.3783 42.9518 44.2056 42.6458 44.2283 42.6685C44.2396 42.6798 43.673 43.1162 42.976 43.6432C41.854 44.4818 41.6556 44.6575 41.276 45.1278C41.038 45.4225 40.6356 45.8475 40.3806 46.0742C39.831 46.5558 39.61 46.8222 39.61 46.9922C39.61 47.2642 39.8366 47.4172 41.344 48.1538C43.758 49.3382 44.9026 50.1032 46.1833 51.3838C47.8833 53.0838 49.1186 55.1465 49.504 56.9202C49.6343 57.5435 49.6286 58.4898 49.4756 59.0338C49.4133 59.2662 49.3736 59.4645 49.385 59.4758C49.3906 59.4872 49.7816 59.4532 50.2406 59.4022C54.9553 58.8865 58.055 57.3735 58.9956 55.1238C59.6246 53.6335 59.3526 51.7408 58.2193 49.7122C56.8423 47.2528 54.893 45.2808 52.3996 43.8188C52.0936 43.6432 51.1643 43.1672 50.337 42.7648C48.756 41.9942 48.3593 41.7562 48.1723 41.4445C47.8833 40.9798 48.059 40.6115 48.9996 39.7332C49.7873 38.9908 50.2463 38.4468 50.6146 37.8235C51.7026 35.9648 51.561 33.8852 50.3086 33.2448C49.9573 33.0692 48.875 32.8085 48.331 32.7745C48.0363 32.7575 47.736 32.7688 47.5433 32.8142ZM42.5283 36.0838L43.435 36.4182L44.3416 36.4578C45.0046 36.4805 45.4296 36.4692 45.9283 36.4068C46.3023 36.3558 46.614 36.3275 46.6253 36.3388C46.6366 36.3502 46.6196 36.4862 46.58 36.6392L46.5063 36.9168L45.7073 37.0302C45.016 37.1322 44.812 37.1435 44.2 37.0925L43.4916 37.0415L42.585 36.5825C41.752 36.1632 41.514 35.9988 41.361 35.7325C41.31 35.6418 41.3213 35.6362 41.463 35.6928C41.5536 35.7268 42.0296 35.9025 42.5283 36.0838Z" fill="#386193"/>
<path d="M3.74581 34.5877C3.53048 34.7407 3.34348 35.211 3.34348 35.6133V35.9703H3.04314C2.65214 35.9703 2.20448 36.1063 1.98348 36.2877C1.85314 36.401 1.81348 36.4803 1.81348 36.6447C1.81348 37.0357 2.22714 37.2737 2.90714 37.2737C3.46814 37.2737 3.76281 37.1603 4.14814 36.8033C4.54481 36.435 4.68081 36.0553 4.62981 35.4547C4.56748 34.684 4.16514 34.293 3.74581 34.5877Z" fill="#386193"/>
<path d="M30.1182 36.1348C29.6195 36.3672 29.3419 36.8432 29.0982 37.8688C28.9282 38.5772 28.8092 38.8095 28.5372 38.9398C28.1179 39.1382 27.6872 39.0362 26.4349 38.4525C25.3752 37.9595 25.0975 37.8462 24.7462 37.7782C24.3495 37.7045 24.0662 37.7895 23.9189 38.0332C23.7375 38.3278 23.6525 38.9965 23.7319 39.5235C23.9019 40.6398 24.6272 41.3992 26.2025 42.1188C27.8232 42.8555 28.0045 42.9915 27.8232 43.3202C27.6985 43.5468 27.2905 43.7452 26.3499 44.0512C25.0125 44.4818 24.2532 44.9125 23.5165 45.6548C22.9612 46.2158 22.3945 47.0772 21.5049 48.7205C20.3942 50.7662 19.7029 51.8088 18.7622 52.8515C17.6742 54.0585 17.3002 54.9878 17.3512 56.3535C17.3795 57.1525 17.5609 57.7475 18.0029 58.4842C18.3542 59.0848 19.3289 60.0708 20.0315 60.5468C22.0432 61.9012 24.8312 62.6435 28.3049 62.7568C28.9962 62.7738 29.3589 62.7682 29.3249 62.7342C29.2965 62.7058 29.1039 62.6208 28.8999 62.5528C28.6959 62.4792 28.2255 62.2752 27.8459 62.0938C26.0949 61.2495 24.8425 60.0822 24.3609 58.8355C23.9642 57.8098 24.0209 56.9258 24.5535 55.8888C24.7575 55.4922 24.9162 55.3052 25.8569 54.3588C27.1489 53.0668 27.6249 52.4832 28.7412 50.8172C29.7159 49.3665 29.8065 49.2475 30.3109 48.6695C30.9965 47.8932 32.1129 47.1565 33.1669 46.7882C33.3765 46.7145 33.5465 46.6352 33.5465 46.6125C33.5465 46.5955 33.0479 46.2782 32.4359 45.9155C31.8239 45.5472 31.2175 45.1562 31.0929 45.0428C30.8492 44.8218 30.6565 44.4762 30.6565 44.2438C30.6565 44.0568 30.8435 43.6602 31.0532 43.3938C31.2005 43.2068 31.2119 43.1615 31.1665 42.9915C31.0815 42.7082 31.0985 42.0338 31.1892 41.7278C31.3705 41.1215 31.7672 40.8495 32.4472 40.8438H32.8552L32.9685 40.5152C33.1952 39.9032 33.2689 39.5122 33.3029 38.8208C33.3482 37.8008 33.1839 37.1322 32.7645 36.6902C32.2829 36.1745 30.7302 35.8515 30.1182 36.1348ZM26.7919 39.6255L27.8289 40.0562L28.5089 39.9145C28.8772 39.8352 29.2172 39.7672 29.2625 39.7672C29.3362 39.7672 29.4439 40.0335 29.3929 40.0845C29.3815 40.1015 29.0585 40.1978 28.6789 40.3112L27.9875 40.5095L27.1262 40.1525C26.3215 39.8182 26.2422 39.7728 25.9532 39.4612C25.7832 39.2742 25.6699 39.1382 25.6982 39.1552C25.7322 39.1722 26.2195 39.3818 26.7919 39.6255ZM25.0522 46.4935C24.7065 46.8788 24.6045 47.0432 24.2192 47.8705C23.7659 48.8395 23.0065 50.0238 22.8365 50.0182C22.7912 50.0182 22.6552 49.9785 22.5362 49.9218L22.3209 49.8255L22.8365 49.2078C23.4372 48.4882 23.3805 48.5788 23.8339 47.5418L24.1795 46.7258L24.7972 46.3972C25.1372 46.2102 25.4205 46.0628 25.4319 46.0628C25.4432 46.0572 25.2732 46.2555 25.0522 46.4935Z" fill="#386193"/>
<path d="M19.3915 37.625C19.3291 37.727 19.0288 38.2597 18.7285 38.8037L18.1788 39.7897L18.3375 39.92C18.4281 39.9937 19.0288 40.464 19.6748 40.9627L20.8535 41.8694L20.6835 42.164C20.5928 42.3284 20.1281 43.167 19.6465 44.034L18.7738 45.6037L18.5358 45.292C18.3261 45.0144 17.1588 43.847 14.4728 41.2234C13.2998 40.0787 13.5095 40.0504 12.0021 41.5917C10.8291 42.8044 10.6931 42.9857 10.8178 43.2124C10.8518 43.2747 11.4695 43.9094 12.1948 44.6234C15.6685 48.0347 15.7195 48.08 16.5978 48.5277C16.8188 48.641 17.0001 48.743 17.0001 48.76C17.0001 48.7997 16.2068 50.2164 16.1501 50.273C16.1218 50.3014 15.5041 49.9897 14.7165 49.5534C13.9571 49.1284 13.3055 48.777 13.2658 48.7657C13.2091 48.7544 11.8718 51.038 11.9171 51.0777C11.9228 51.0834 13.1525 51.769 14.6428 52.5964C16.6715 53.724 17.3685 54.0924 17.4081 54.0357C17.4308 53.996 17.5441 53.809 17.6518 53.622C17.7651 53.435 18.1108 52.9874 18.4168 52.6304C18.7285 52.2734 18.9835 51.9674 18.9835 51.9504C18.9835 51.9334 18.6378 51.7294 18.2185 51.497C17.7991 51.2647 17.4591 51.0607 17.4648 51.0437C17.4761 51.0267 17.6801 50.647 17.9238 50.205L18.3715 49.4004L18.5925 49.525C18.7171 49.593 19.0741 49.848 19.3858 50.0917C19.6975 50.3354 19.9751 50.5224 20.0035 50.5054C20.0431 50.4827 20.6155 49.525 20.7855 49.1964C20.8365 49.1 20.8081 49.0377 20.6155 48.7997C20.3378 48.4597 19.9071 47.8137 19.7258 47.4737L19.5898 47.2187L20.8251 45.0087C21.4995 43.7904 22.0605 42.793 22.0661 42.7817C22.0775 42.776 22.2305 42.878 22.4175 43.0084C22.5988 43.1387 23.1315 43.507 23.5905 43.8244L24.4348 44.408L24.8881 44.1814C25.1375 44.051 25.6758 43.8414 26.0895 43.7054C26.9281 43.4334 27.4268 43.2294 27.4268 43.167C27.4268 43.1444 27.2058 43.0254 26.9338 42.9064C25.0695 42.079 24.4235 41.6597 23.8795 40.9174C23.6585 40.617 23.3865 40.379 22.4118 39.648C21.7601 39.155 20.8535 38.458 20.4001 38.101C19.9468 37.7384 19.5615 37.4437 19.5388 37.4437C19.5218 37.4437 19.4538 37.5287 19.3915 37.625Z" fill="#386193"/>
<path d="M38.573 39.7896C37.978 40.005 37.5474 40.6453 37.3717 41.5803C37.349 41.688 37.2754 41.8693 37.2017 41.9826C36.873 42.487 36.244 42.504 34.9917 42.0336C33.4277 41.45 32.9347 41.2913 32.5437 41.263C31.807 41.2063 31.535 41.5066 31.535 42.402C31.535 42.8383 31.5577 42.9573 31.688 43.235C32.0734 44.0623 32.8894 44.6063 34.7254 45.258C35.7057 45.6036 35.989 45.751 36.0627 45.955C36.176 46.278 35.7907 46.4876 34.5157 46.8163C33.0934 47.1846 32.266 47.5473 31.4614 48.148C30.702 48.726 30.26 49.2643 28.917 51.2703C27.9254 52.7436 27.3927 53.3953 26.163 54.625C25.3017 55.4863 25.092 55.73 24.9164 56.0643C23.8057 58.2063 25.1544 60.4843 28.3617 61.8896C31.263 63.159 35.6604 63.6916 40.29 63.3346C44.047 63.0456 46.716 62.122 48.127 60.6203C49.2264 59.453 49.47 58.008 48.8694 56.2116C48.28 54.4436 46.7954 52.3413 45.1634 50.9756C44.047 50.035 43.1234 49.4683 41.2307 48.5503C40.528 48.2103 39.8367 47.8533 39.695 47.757C39.3664 47.5303 39.2134 47.2866 39.2134 46.992C39.219 46.6406 39.355 46.4536 40.1144 45.7736C40.7887 45.1673 41.2647 44.5496 41.6217 43.8186C42.0184 43.0026 42.126 42.555 42.092 41.7956C42.0637 41.076 41.9277 40.736 41.5367 40.3676C41.2534 40.1013 40.902 39.9596 40.103 39.7896C39.6214 39.6933 38.8564 39.6876 38.573 39.7896ZM39.8084 41.9656C39.4287 42.878 38.3917 43.66 37.2697 43.881C36.8447 43.966 36.6974 43.9716 36.2894 43.915C35.5017 43.813 34.4874 43.3993 33.8867 42.9403C33.7564 42.844 33.7847 42.844 34.204 42.963C34.935 43.1783 35.6604 43.2803 36.431 43.2803C37.7797 43.2746 38.454 43.0196 39.2814 42.1923C39.559 41.9146 39.8084 41.705 39.8367 41.722C39.8707 41.7446 39.8594 41.841 39.8084 41.9656ZM35.785 48.4823C35.666 48.59 34.068 49.6553 32.895 50.4146C31.7277 51.174 31.5974 51.276 30.8097 52.0523C30.0504 52.8003 29.8577 53.0383 28.8944 54.3813C28.305 55.203 27.8234 55.849 27.8234 55.815C27.8234 55.6563 28.1407 54.761 28.3617 54.302C29.5177 51.8823 31.875 49.9556 35.3034 48.6296C35.8304 48.4256 35.8587 48.4143 35.785 48.4823Z" fill="#386193"/>
<path d="M61.2115 52.4602C61.0131 52.5792 60.8431 52.6869 60.8261 52.7039C60.8091 52.7152 60.8261 52.8965 60.8658 53.1005L60.9338 53.4689L61.3361 53.5822C61.5571 53.6445 61.9708 53.7295 62.2485 53.7635C62.5318 53.7975 62.8038 53.8429 62.8605 53.8542C62.9455 53.8825 62.9568 53.8315 62.9568 53.4009V52.9135L62.2768 52.5735C61.9028 52.3865 61.5911 52.2335 61.5855 52.2392C61.5741 52.2392 61.4098 52.3412 61.2115 52.4602Z" fill="#386193"/>
<path d="M13.3054 54.7895L12.5234 55.1805V55.7642V56.3535L13.3961 56.2232C13.8778 56.1552 14.4388 56.0418 14.6371 55.9795L14.9941 55.8605L15.0734 55.4015C15.1358 55.0105 15.1358 54.9312 15.0678 54.8915C14.8524 54.7498 14.1724 54.3872 14.1328 54.3928C14.1044 54.3928 13.7304 54.5685 13.3054 54.7895Z" fill="#386193"/>
<path d="M1.07667 57.1693C0.748 57.294 0.464667 57.4186 0.442 57.4413C0.391 57.4866 0 59.198 0 59.3566C0 59.4473 0.158667 59.4983 0.974667 59.7023C1.50733 59.8383 1.96633 59.9233 1.989 59.9006C2.057 59.827 2.83333 58.3366 2.83333 58.28C2.83333 58.212 1.768 56.937 1.71133 56.9426C1.68867 56.9426 1.40533 57.0446 1.07667 57.1693Z" fill="#386193"/>
<path d="M60.0157 58.2402C59.7607 58.3875 59.534 58.5235 59.5227 58.5405C59.4944 58.5689 59.5397 58.8635 59.6417 59.3565C59.6814 59.5265 60.1857 59.6795 61.1887 59.8269C61.6364 59.8892 62.0274 59.9402 62.0557 59.9402C62.084 59.9402 62.1067 59.6795 62.1067 59.3565V58.7785L61.2964 58.3705L60.486 57.9682L60.0157 58.2402Z" fill="#386193"/>
<path d="M7.10035 58.4557L6.34668 58.8354V59.4134C6.34668 59.8837 6.36368 59.9971 6.42601 59.9971C6.89635 59.9971 8.78335 59.6117 8.78335 59.5154C8.78335 59.5041 8.82301 59.3001 8.86835 59.0564C8.93635 58.7051 8.93635 58.6031 8.87968 58.5691C8.63035 58.3991 7.99001 58.0704 7.92768 58.0761C7.88235 58.0761 7.50835 58.2461 7.10035 58.4557Z" fill="#386193"/>
<path d="M12.6933 59.7928L11.7583 60.0308L11.4353 60.9885C11.254 61.5098 11.118 61.9575 11.135 61.9688C11.1633 61.9972 14.0136 62.4902 14.0363 62.4675C14.11 62.3995 15.3 60.8808 15.3 60.8525C15.3 60.8015 13.8096 59.6115 13.7076 59.5775C13.6623 59.5662 13.209 59.6625 12.6933 59.7928Z" fill="#386193"/>
<path d="M51.6402 62.0541L50.8298 62.4621V63.0401C50.8298 63.3631 50.8412 63.6238 50.8525 63.6238C51.0848 63.6238 52.5525 63.3688 52.8528 63.2781L53.2608 63.1534L53.3232 62.8361C53.3572 62.6604 53.3968 62.4508 53.4138 62.3658C53.4422 62.2298 53.4025 62.1958 52.9548 61.9294C52.6828 61.7708 52.4562 61.6404 52.4562 61.6461C52.4505 61.6461 52.0822 61.8274 51.6402 62.0541Z" fill="#386193"/>
<path d="M6.57327 61.9861C6.12561 62.1391 5.72327 62.2977 5.68927 62.3317C5.58727 62.4394 5.04327 64.7571 5.11694 64.7571C5.12827 64.7571 5.68927 64.8817 6.36927 65.0404C7.04927 65.1934 7.63861 65.3237 7.67827 65.3237C7.74627 65.3237 8.89661 63.4311 8.89661 63.3234C8.89661 63.2781 7.47994 61.7311 7.42894 61.7141C7.41194 61.7084 7.02661 61.8331 6.57327 61.9861Z" fill="#386193"/>
<path d="M59.3867 62.5809C58.3667 62.7056 58.3157 62.7112 57.494 62.6262C57.035 62.5752 56.6327 62.5582 56.61 62.5866C56.576 62.6206 56.3267 63.7142 56.3267 63.8276C56.3267 63.8389 56.7403 64.0542 57.239 64.3092L58.1513 64.7626L59.2167 64.9042L60.282 65.0459L60.9733 64.6776L61.659 64.3036H62.254H62.8433L63.325 63.9919C63.869 63.6462 63.8577 63.6632 63.7273 63.0002C63.6423 62.5696 63.7613 62.5922 62.611 62.8019C62.186 62.8812 61.778 62.9436 61.71 62.9436C61.6363 62.9436 61.37 62.8302 61.1093 62.6886C60.8543 62.5469 60.5993 62.4392 60.537 62.4392C60.4803 62.4449 59.9647 62.5072 59.3867 62.5809Z" fill="#386193"/>
<path d="M45.8262 63.7994L45.0442 64.1904L45.0612 64.7967L45.0782 65.403L45.5429 65.6694C45.8035 65.8224 46.1775 66.032 46.3815 66.1454L46.7442 66.3494L47.1069 65.624C47.3789 65.0914 47.4922 64.791 47.5432 64.485C47.5772 64.2584 47.5999 64.0374 47.5829 63.9977C47.5602 63.9354 46.6819 63.3914 46.6252 63.4027C46.6139 63.4027 46.2569 63.5784 45.8262 63.7994Z" fill="#386193"/>
<path d="M18.6545 63.7936C17.4929 63.8503 16.5295 63.9013 16.5182 63.9126C16.4615 63.975 16.0989 65.4596 16.1329 65.4936C16.1555 65.5163 16.7052 65.7146 17.3455 65.93L18.5072 66.3323L19.4875 65.9696L20.4622 65.607L21.5502 66.2246L22.6382 66.8423L23.4315 66.4286L24.2192 66.0093L24.3155 65.6806C24.3665 65.4993 24.4629 65.165 24.5252 64.9326L24.6442 64.519L23.3862 64.5586L22.1282 64.5983L21.7712 64.1393L21.4199 63.6803L21.0912 63.686C20.9155 63.6916 19.8162 63.7426 18.6545 63.7936Z" fill="#386193"/>
<path d="M27.268 64.8025C27.0073 64.8421 26.9847 64.9555 26.962 66.7235C26.9337 68.4348 26.9563 68.6615 27.166 68.7408C27.217 68.7635 28.781 68.7805 30.6453 68.7805C34.5327 68.7861 34.255 68.8145 35.955 68.2421C37.4227 67.7548 38.2047 67.6301 40.4657 67.5451C41.2193 67.5168 41.548 67.4828 41.616 67.4261C41.6897 67.3638 41.7067 67.2391 41.7067 66.8255C41.7067 66.4741 41.684 66.2815 41.6387 66.2475C41.599 66.2135 41.0437 66.1568 40.4033 66.1228C39.049 66.0435 37.91 65.9245 37.332 65.8055C37.1053 65.7601 36.4423 65.5561 35.8587 65.3578C34.2777 64.8081 34.3797 64.8195 30.6283 64.8025C28.8547 64.7911 27.3417 64.7911 27.268 64.8025Z" fill="#386193"/>
<path d="M50.252 66.2927L49.47 66.6837V67.2503C49.47 67.919 49.3567 67.868 50.473 67.7037C51.2664 67.5847 51.7707 67.46 51.884 67.341C51.9464 67.2787 52.1107 66.4683 52.071 66.4287C51.9917 66.355 51.153 65.8903 51.0964 65.896C51.0567 65.896 50.677 66.0717 50.252 66.2927Z" fill="#386193"/>
<path d="M43.8203 68.1174L43.1233 68.3497V68.7294V69.1034L43.9223 69.3924C44.676 69.67 44.7326 69.6814 44.795 69.5907C44.8346 69.534 44.9876 69.3357 45.1293 69.1487C45.3843 68.8257 45.6053 68.2874 45.5203 68.2137C45.4523 68.157 44.659 67.8737 44.5796 67.8794C44.54 67.8794 44.2 67.987 43.8203 68.1174Z" fill="#386193"/>
</svg>

