<svg width="974" height="327" viewBox="0 0 974 327" fill="none" xmlns="http://www.w3.org/2000/svg">
<path fill-rule="evenodd" clip-rule="evenodd" d="M53.7244 121.514C61.5298 124.73 70.3962 121.053 73.571 113.33C76.7705 105.632 73.1104 96.6832 65.305 93.4837C57.6477 90.3336 48.7483 94.0841 45.5653 101.815C42.3823 109.506 46.067 118.372 53.7244 121.514" fill="black"/>
<path fill-rule="evenodd" clip-rule="evenodd" d="M19.3733 141.654C27.1869 144.879 36.0369 141.194 39.2199 133.471C42.4194 125.772 38.7593 116.824 30.9457 113.616C23.2966 110.474 14.3973 114.233 11.2142 121.964C8.03122 129.646 11.716 138.513 19.3733 141.654" fill="black"/>
<path fill-rule="evenodd" clip-rule="evenodd" d="M29.1593 171.696C32.3588 163.998 28.6987 155.049 20.8933 151.841C13.236 148.699 4.33665 152.45 1.1454 160.181C-2.03763 167.872 1.64711 176.738 9.30447 179.872C17.1181 183.096 25.9763 179.411 29.1593 171.696" fill="black"/>
<path fill-rule="evenodd" clip-rule="evenodd" d="M92.1087 133.624C99.9141 136.84 108.78 133.163 111.955 125.44C115.155 117.742 111.495 108.793 103.689 105.585C96.0319 102.444 87.1326 106.194 83.9496 113.934C80.7666 121.616 84.4513 130.482 92.1087 133.624" fill="black"/>
<path fill-rule="evenodd" clip-rule="evenodd" d="M231.092 121.514C238.75 118.372 242.434 109.506 239.243 101.815C236.06 94.0841 227.169 90.3336 219.503 93.4837C211.698 96.6832 208.046 105.632 211.237 113.33C214.42 121.053 223.279 124.73 231.092 121.514" fill="black"/>
<path fill-rule="evenodd" clip-rule="evenodd" d="M265.466 141.654C273.124 138.513 276.808 129.646 273.625 121.964C270.442 114.233 261.543 110.474 253.886 113.616C246.08 116.824 242.42 125.772 245.62 133.471C248.794 141.194 257.661 144.879 265.466 141.654" fill="black"/>
<path fill-rule="evenodd" clip-rule="evenodd" d="M283.666 160.181C280.483 152.45 271.584 148.699 263.927 151.841C256.121 155.049 252.461 163.998 255.661 171.696C258.835 179.411 267.702 183.096 275.507 179.872C283.173 176.746 286.858 167.872 283.666 160.181" fill="black"/>
<path fill-rule="evenodd" clip-rule="evenodd" d="M192.734 133.624C200.392 130.482 204.077 121.616 200.885 113.934C197.711 106.194 188.811 102.444 181.154 105.585C173.348 108.793 169.688 117.742 172.88 125.44C176.063 133.163 184.921 136.84 192.734 133.624" fill="black"/>
<path fill-rule="evenodd" clip-rule="evenodd" d="M134.335 94.4431C134.903 95.1915 135.569 95.8495 136.317 96.4088L125.296 129.654C125.288 129.695 125.271 129.736 125.263 129.777L125.247 129.81L125.255 129.818C124.737 131.471 124.457 133.24 124.457 135.066C124.457 144.056 131.103 151.483 139.739 152.757C139.862 152.774 139.994 152.799 140.125 152.815C140.866 152.914 141.606 152.971 142.371 152.971C143.136 152.971 143.884 152.914 144.616 152.815C144.748 152.799 144.879 152.774 145.003 152.757C153.639 151.483 160.285 144.056 160.285 135.066C160.285 133.24 160.005 131.471 159.495 129.818V129.81L159.487 129.777C159.479 129.736 159.462 129.695 159.446 129.654L148.424 96.4088C149.173 95.8495 149.839 95.1915 150.415 94.4431L150.456 94.4019L169.645 104.477V76.1921L150.481 82.262L150.423 82.2045C149.888 81.5053 149.263 80.872 148.564 80.3292L148.507 80.2716L156.222 56L142.371 56.0082L128.52 56L136.235 80.2716L136.178 80.3292C135.478 80.872 134.853 81.5053 134.319 82.2045L134.261 82.262L115.097 76.1921V104.477L134.294 94.4019L134.335 94.4431Z" fill="black"/>
<path fill-rule="evenodd" clip-rule="evenodd" d="M253.762 206.105C250.357 202.782 247.132 196.655 244.616 187.303L234.614 220.606C240.701 216.419 245.389 213.713 250.76 213.59C241.243 234.086 229.35 239.367 221.644 237.944C212.234 236.216 207.908 227.827 209.372 220.713C211.535 210.629 221.882 208.005 226.71 219.734C235.963 200.882 220.278 195.002 210.186 200.586C225.682 185.123 227.459 171.38 214.948 154.749C197.512 168.073 197.314 181.274 205.153 199.838C194.97 188.183 179.137 194.442 184.862 213.269C192.198 201.902 201.92 209.05 200.39 219.849C199.099 229.25 186.688 236.85 171.217 235.501C149.059 233.494 147.743 218.196 147.184 205.538C152.629 204.526 162.441 209.584 170.806 221.329L173.89 186.004C164.793 195.487 156.519 197.288 147.332 197.584C150.391 188.043 164.448 172.408 164.448 172.408H144.025H144.017H144.001H120.354C120.354 172.408 134.411 188.043 137.47 197.584C128.283 197.288 120.009 195.487 110.912 186.004L113.988 221.329C122.361 209.584 132.165 204.534 137.618 205.538C137.067 218.196 135.751 233.494 113.585 235.501C98.1141 236.85 85.6946 229.25 84.4115 219.849C82.8817 209.05 92.6035 201.902 99.9483 213.269C105.665 194.442 89.8235 188.183 79.6493 199.838C87.4876 181.274 87.282 168.073 69.8535 154.749C57.3434 171.38 59.12 185.123 74.6157 200.586C64.5238 195.002 48.8471 200.882 58.0837 219.734C62.9199 208.005 73.275 210.629 75.4299 220.713C76.8857 227.827 72.5595 236.225 63.1584 237.944C55.4517 239.367 43.5668 234.086 34.0424 213.59C39.4132 213.713 44.1014 216.419 50.1878 220.606L40.1864 187.303C37.6695 196.655 34.4454 202.782 31.0403 206.105C28.7373 199.369 29.0663 194.492 31.1143 184.005L10.4863 191.358C21.4419 206.319 32.0602 227.325 40.7785 263.992C71.4902 259.6 105.952 257.132 142.38 257.132C178.808 257.132 213.295 259.6 244.023 264C252.742 227.325 263.352 206.319 274.316 191.358L253.679 184.005C255.736 194.492 256.056 199.369 253.762 206.105" fill="black"/>
<path d="M373.245 176.772C373.245 181.89 373.884 186.813 375.164 191.542C376.443 196.27 378.39 200.442 381.005 204.058C383.62 207.674 386.957 210.595 391.018 212.82C395.079 214.989 399.919 216.074 405.538 216.074C410.934 216.074 415.412 215.212 418.972 213.487C422.588 211.763 425.453 209.621 427.567 207.062C429.736 204.448 431.238 201.638 432.073 198.634C432.963 195.63 433.408 192.849 433.408 190.29V189.122H402.784V170.681H456.939V236.268H435.744V222.249C434.242 224.585 432.379 226.727 430.154 228.674C427.928 230.566 425.425 232.207 422.644 233.597C419.862 234.932 416.802 235.989 413.465 236.768C410.183 237.547 406.678 237.936 402.951 237.936C394.217 237.936 386.457 236.351 379.67 233.18C372.883 230.009 367.153 225.642 362.48 220.079C357.863 214.516 354.331 208.008 351.883 200.554C349.491 193.099 348.295 185.061 348.295 176.438C348.295 167.871 349.63 159.861 352.3 152.406C355.026 144.896 358.864 138.388 363.816 132.88C368.822 127.317 374.83 122.951 381.839 119.78C388.904 116.553 396.804 114.94 405.538 114.94C411.212 114.94 416.58 115.607 421.642 116.943C426.76 118.222 431.405 120.086 435.577 122.533C439.805 124.925 443.532 127.846 446.759 131.295C449.985 134.688 452.6 138.471 454.603 142.643L433.408 154.576C432.128 152.017 430.626 149.653 428.902 147.483C427.177 145.258 425.175 143.367 422.894 141.809C420.669 140.196 418.11 138.944 415.217 138.054C412.324 137.108 409.098 136.635 405.538 136.635C399.919 136.635 395.079 137.748 391.018 139.973C386.957 142.143 383.62 145.035 381.005 148.651C378.39 152.267 376.443 156.467 375.164 161.251C373.884 165.98 373.245 170.875 373.245 175.938V176.772Z" fill="black"/>
<path d="M529.368 114.94C538.269 114.94 546.252 116.553 553.317 119.78C560.382 122.951 566.362 127.317 571.257 132.88C576.208 138.388 579.963 144.896 582.522 152.406C585.137 159.861 586.444 167.871 586.444 176.438C586.444 185.061 585.137 193.099 582.522 200.554C579.963 208.008 576.208 214.516 571.257 220.079C566.362 225.642 560.382 230.009 553.317 233.18C546.252 236.351 538.269 237.936 529.368 237.936C520.412 237.936 512.401 236.351 505.337 233.18C498.327 230.009 492.347 225.642 487.396 220.079C482.501 214.516 478.746 208.008 476.131 200.554C473.572 193.099 472.293 185.061 472.293 176.438C472.293 167.871 473.572 159.861 476.131 152.406C478.746 144.896 482.501 138.388 487.396 132.88C492.347 127.317 498.327 122.951 505.337 119.78C512.401 116.553 520.412 114.94 529.368 114.94ZM529.368 216.074C534.598 216.074 539.187 215.101 543.137 213.154C547.142 211.151 550.508 208.397 553.233 204.893C555.959 201.388 558.018 197.244 559.408 192.459C560.799 187.675 561.494 182.446 561.494 176.772V176.104C561.494 170.486 560.799 165.285 559.408 160.5C558.018 155.661 555.959 151.488 553.233 147.984C550.508 144.479 547.142 141.753 543.137 139.806C539.187 137.804 534.598 136.802 529.368 136.802C524.139 136.802 519.522 137.804 515.517 139.806C511.511 141.753 508.146 144.479 505.42 147.984C502.75 151.488 500.719 155.661 499.329 160.5C497.938 165.285 497.242 170.486 497.242 176.104V176.772C497.242 182.446 497.938 187.675 499.329 192.459C500.719 197.244 502.75 201.388 505.42 204.893C508.146 208.397 511.511 211.151 515.517 213.154C519.522 215.101 524.139 216.074 529.368 216.074Z" fill="black"/>
<path d="M629.501 236.268L595.706 116.609H622.826L645.94 206.561H646.774L669.388 116.609H696.173L662.378 236.268H629.501Z" fill="black"/>
<path d="M699.594 222.75C699.594 220.691 699.984 218.772 700.762 216.992C701.597 215.156 702.709 213.571 704.1 212.236C705.491 210.845 707.104 209.76 708.94 208.981C710.831 208.147 712.806 207.73 714.865 207.73C716.923 207.73 718.87 208.147 720.706 208.981C722.541 209.76 724.155 210.845 725.545 212.236C726.936 213.571 728.021 215.156 728.8 216.992C729.634 218.772 730.051 220.691 730.051 222.75C730.051 224.864 729.634 226.838 728.8 228.674C728.021 230.51 726.936 232.123 725.545 233.514C724.155 234.905 722.541 235.989 720.706 236.768C718.87 237.547 716.923 237.936 714.865 237.936C712.806 237.936 710.831 237.547 708.94 236.768C707.104 235.989 705.491 234.905 704.1 233.514C702.709 232.123 701.597 230.51 700.762 228.674C699.984 226.838 699.594 224.864 699.594 222.75Z" fill="black"/>
<path d="M798.142 216.074C801.646 216.074 804.901 215.573 807.905 214.572C810.964 213.515 813.579 211.958 815.748 209.899C817.973 207.785 819.726 205.143 821.005 201.972C822.285 198.746 822.925 194.963 822.925 190.624V116.442H846.789V194.212C846.789 200.887 845.566 206.923 843.118 212.319C840.726 217.715 837.36 222.305 833.021 226.087C828.738 229.87 823.62 232.791 817.668 234.849C811.715 236.907 805.207 237.936 798.142 237.936C791.077 237.936 784.568 236.907 778.616 234.849C772.663 232.791 767.518 229.87 763.179 226.087C758.839 222.305 755.446 217.715 752.998 212.319C750.606 206.923 749.41 200.887 749.41 194.212V116.442H773.359V190.624C773.359 194.963 773.998 198.746 775.278 201.972C776.557 205.143 778.282 207.785 780.452 209.899C782.677 211.958 785.291 213.515 788.295 214.572C791.355 215.573 794.637 216.074 798.142 216.074Z" fill="black"/>
<path d="M870.488 116.609H894.686V168.428L937.41 116.609H967.199L925.644 164.172L969.869 236.268H941.749L910.124 182.613L894.686 199.886V236.268H870.488V116.609Z" fill="black"/>
</svg>
