<svg width="974" height="327" viewBox="0 0 974 327" fill="none" xmlns="http://www.w3.org/2000/svg">
<path d="M64.2307 117.143C67.7614 117.143 71.268 117.264 74.7745 117.434V107.083C76.951 100.941 81.0863 96.1767 86.1406 94.0969C91.1949 96.2008 95.306 100.965 97.5067 107.083V119.779C117.845 122.996 137.022 129.09 154.53 137.578V66.77H154.41C154.144 65.6576 153.466 64.5693 152.451 63.5778V67.6648L149.911 65.7785V61.6673C145.341 58.9105 137.796 57.0725 129.211 57V62.683H125.656V57.0726C118.353 57.4353 111.968 59.0556 107.833 61.4255V66.3589L105.947 68.2452V62.683C104.326 63.9164 103.286 65.319 102.924 66.7942H102.803V70.5667H99.9492V76.5158H95.0158V70.5667H77.6765V76.5158H72.7431V70.5667H69.5026V66.7942H69.3817C69.0189 65.319 67.9791 63.9406 66.3588 62.683V68.2452L64.4725 66.3589V61.4255C60.313 59.0556 53.9529 57.4111 46.6495 57.0726V62.683H43.0946V57C34.5096 57.0725 26.9645 58.9105 22.3939 61.6673V65.7785L19.8547 67.6648V63.5778C18.839 64.5693 18.1618 65.6576 17.8958 66.77H17.7749V122.294C32.6233 118.957 48.1973 117.143 64.2307 117.143Z" fill="white"/>
<path d="M263.5 161.157C279.927 161.157 293.245 147.839 293.245 131.411C293.245 114.984 279.927 101.666 263.5 101.666C247.072 101.666 233.754 114.984 233.754 131.411C233.754 147.839 247.072 161.157 263.5 161.157Z" fill="white"/>
<path d="M311.164 161.665C322.61 161.665 331.889 152.386 331.889 140.94C331.889 129.494 322.61 120.215 311.164 120.215C299.718 120.215 290.439 129.494 290.439 140.94C290.439 152.386 299.718 161.665 311.164 161.665Z" fill="white"/>
<path d="M209.765 73.8799C211.24 72.2596 212.716 70.6635 214.191 69.0432C214.312 69.1158 214.457 69.1883 214.578 69.2851C213.997 70.1799 213.417 71.0988 212.812 71.9936C212.861 72.0178 212.885 72.0661 212.933 72.0903C212.909 72.042 212.885 71.9936 212.861 71.9452C213.586 71.4374 214.336 70.9537 215.061 70.4459C215.932 69.8413 216.778 69.2125 217.649 68.5838L217.601 68.5354C216.972 69.6962 216.343 70.857 215.666 72.1629C216.972 71.2197 218.229 70.3008 219.487 69.3818C219.608 69.5027 219.729 69.6478 219.85 69.7687C219.003 70.8328 218.157 71.8969 217.093 73.2511C218.399 72.6465 219.463 72.1629 220.502 71.6792C217.552 74.9439 216.923 79.176 215.472 83.0211C214.674 85.125 214.263 87.3982 213.61 89.5747C212.57 92.9604 211.482 96.346 210.249 100.264C214.965 100.264 219.463 100.264 223.961 100.264C224.154 100.53 224.348 100.82 224.517 101.086C217.649 102.271 218.326 107.446 218.06 112.428C217.407 112.041 216.972 111.847 216.609 111.581C214.046 109.623 211.506 107.639 208.967 105.656C207.903 104.834 207.25 104.81 206.283 106.116C204.638 108.365 202.534 110.3 200.697 112.428C197.819 115.741 194.965 119.102 192.112 122.44C191.41 123.262 190.685 124.108 190.08 124.979C189.04 126.454 188.097 128.002 186.864 129.864C186.695 128.703 186.549 127.76 186.38 126.527C185.776 127.663 185.243 128.606 184.711 129.574C184.542 129.525 184.349 129.477 184.179 129.428C184.3 128.147 184.421 126.889 184.566 125.342C183.744 126.357 183.067 127.228 182.39 128.074C182.245 128.002 182.076 127.929 181.93 127.857C182.39 126.43 182.825 124.979 183.406 123.165C182.535 123.842 181.955 124.302 181.374 124.761C181.253 124.689 181.157 124.616 181.036 124.568C181.785 123.117 182.535 121.642 183.406 119.925C182.753 120.166 182.39 120.287 182.027 120.432L181.979 120.384C185.219 115.402 187.347 109.671 192.208 105.802C193.659 104.665 194.772 103.117 196.416 101.4C194.893 100.578 193.732 99.9493 192.547 99.3205C193.127 97.6519 194.457 96.7571 196.416 96.8055C198.593 96.878 199.705 95.693 200.237 93.7342C200.6 92.4283 201.18 91.1708 201.374 89.8649C202.293 83.0211 207.033 78.0877 209.91 72.2354C210.104 72.308 210.273 72.3805 210.466 72.4772C210.225 72.9851 209.983 73.5171 209.765 74.025C209.789 74.0492 209.838 74.0491 209.862 74.0733C209.814 73.9766 209.789 73.9282 209.765 73.8799Z" fill="white"/>
<path d="M167.009 134.459C166.961 134.58 166.888 134.676 166.84 134.797C166.767 134.725 166.695 134.652 166.646 134.58C166.767 134.531 166.864 134.459 166.985 134.41C166.961 134.41 167.009 134.459 167.009 134.459Z" fill="white"/>
<path d="M202.631 82.6342C202.679 82.5616 202.703 82.4891 202.752 82.4165C202.752 82.4649 202.776 82.5374 202.752 82.5374C202.703 82.5616 202.655 82.5858 202.583 82.61C202.583 82.61 202.631 82.6342 202.631 82.6342Z" fill="white"/>
<path d="M0.410645 242.992V265.676H342.191V242.992C228.288 225.847 114.361 260.162 0.410645 242.992Z" fill="white"/>
<path d="M132.862 195.594C148.944 183.357 168.847 173.176 191.482 165.8C157.988 138.618 113.322 121.98 64.2304 121.98C41.6675 121.98 20.0478 125.487 0 131.919V192.861C44.3035 199.535 88.5828 198.447 132.862 195.594Z" fill="white"/>
<path d="M280.524 157.819C226.741 157.819 178.544 172.111 145.461 194.771C211.046 190.176 276.631 183.018 342.215 192.885V164.373C322.966 160.141 302.192 157.819 280.524 157.819Z" fill="white"/>
<path d="M342.215 236.608C228.143 219.438 114.096 253.778 0.0239258 236.608V199.269C114.096 216.439 228.143 182.099 342.215 199.269V236.608Z" fill="white"/>
<path d="M411.838 122.367L390.775 85.7778V122.367H381.44V72.0176H392.08L412.926 108.679V72.0176H422.261V122.367H411.838Z" fill="white"/>
<path d="M449.999 123.262C438.948 123.262 429.952 114.411 429.952 103.504C429.952 92.67 438.948 83.7465 449.927 83.7465C461.317 83.7465 470.096 92.5249 470.096 103.77C470.096 114.386 460.979 123.262 449.999 123.262ZM449.999 92.0413C444.075 92.0413 439.093 97.1439 439.093 103.359C439.093 109.84 443.93 114.943 450.072 114.943C456.069 114.943 460.979 109.84 460.979 103.504C460.979 97.2165 456.069 92.0413 449.999 92.0413Z" fill="white"/>
<path d="M484.968 101.376V122.367H475.899V84.6169H484.218V88.2928C486.613 84.8104 488.523 83.7222 492.392 83.7222H493.069V92.4523C487.604 92.5974 484.968 95.5235 484.968 101.376Z" fill="white"/>
<path d="M509.829 92.8634V122.367H500.76V92.8634H496.335V84.617H500.76V72.0176H509.829V84.617H515.27V92.8634H509.829Z" fill="white"/>
<path d="M545.595 122.367V103.093C545.595 95.185 543.54 92.0412 538.243 92.0412C533.068 92.0412 530.263 94.8948 530.263 103.214V122.367H521.194V72.0176H530.263V87.2046C532.996 84.7621 535.994 83.6497 539.864 83.6497C548.932 83.6497 554.664 88.6314 554.664 101.037V122.367H545.595V122.367Z" fill="white"/>
<path d="M411.838 195.376L390.775 158.786V195.376H381.44V145.026H392.08L412.926 181.688V145.026H422.261V195.376H411.838V195.376Z" fill="white"/>
<path d="M449.999 196.271C438.948 196.271 429.952 187.42 429.952 176.513C429.952 165.679 438.948 156.755 449.927 156.755C461.317 156.755 470.096 165.534 470.096 176.779C470.096 187.42 460.979 196.271 449.999 196.271ZM449.999 165.05C444.075 165.05 439.093 170.153 439.093 176.368C439.093 182.849 443.93 187.952 450.072 187.952C456.069 187.952 460.979 182.849 460.979 176.513C460.979 170.225 456.069 165.05 449.999 165.05Z" fill="white"/>
<path d="M484.968 174.385V195.376H475.899V157.626H484.218V161.302C486.613 157.819 488.523 156.731 492.392 156.731H493.069V165.461C487.604 165.606 484.968 168.532 484.968 174.385Z" fill="white"/>
<path d="M509.829 165.872V195.376H500.76V165.872H496.335V157.626H500.76V145.026H509.829V157.626H515.27V165.872H509.829Z" fill="white"/>
<path d="M545.595 195.376V176.102C545.595 168.194 543.54 165.05 538.243 165.05C533.068 165.05 530.263 167.903 530.263 176.222V195.376H521.194V145.026H530.263V160.213C532.996 157.771 535.994 156.658 539.864 156.658C548.932 156.658 554.664 161.64 554.664 174.046V195.376H545.595V195.376Z" fill="white"/>
<path d="M592.705 195.376V190.467C589.101 194.553 585.474 196.27 580.178 196.27C569.126 196.27 561.17 188.024 561.17 176.634C561.17 165.123 569.199 156.731 580.396 156.731C585.837 156.731 589.585 158.496 592.729 162.656V157.602H601.048V195.352H592.705V195.376ZM581.314 165.05C574.833 165.05 570.263 169.959 570.263 176.827C570.263 183.429 574.833 187.927 581.435 187.927C588.328 187.927 592.415 183.018 592.415 176.755C592.415 169.887 587.796 165.05 581.314 165.05Z" fill="white"/>
<path d="M655.992 195.376V174.651C655.992 167.081 653.138 165.05 648.906 165.05C643.876 165.05 641.265 167.783 641.265 176.779V195.376H632.196V174.651C632.196 167.227 629.608 165.05 624.844 165.05C619.596 165.05 617.492 167.855 617.492 176.779V195.376H608.424V157.626H616.743V161.157C619.403 157.964 622.136 156.731 626.561 156.731C631.736 156.731 635.074 158.496 637.661 162.583C640.733 158.496 644.481 156.731 649.801 156.731C659.74 156.731 665.061 162.245 665.061 173.563V195.376H655.992Z" fill="white"/>
<path d="M694.516 196.27C689.873 196.27 686.342 194.916 682.932 191.845V207.999H673.863V157.626H682.182V162.051C685.108 158.642 689.486 156.731 694.588 156.731C705.495 156.731 713.403 164.978 713.403 176.368C713.379 187.831 705.398 196.27 694.516 196.27ZM693.403 165.05C687.14 165.05 682.352 169.959 682.352 176.44C682.352 183.042 687.116 187.951 693.524 187.951C699.522 187.951 704.213 182.97 704.213 176.561C704.262 170.032 699.546 165.05 693.403 165.05Z" fill="white"/>
<path d="M729.944 165.872V195.376H720.875V165.872H716.45V157.626H720.875V145.026H729.944V157.626H735.385V165.872H729.944Z" fill="white"/>
<path d="M758.359 196.271C747.308 196.271 738.312 187.42 738.312 176.513C738.312 165.679 747.308 156.755 758.287 156.755C769.677 156.755 778.455 165.534 778.455 176.779C778.455 187.42 769.338 196.271 758.359 196.271ZM758.359 165.05C752.434 165.05 747.453 170.153 747.453 176.368C747.453 182.849 752.289 187.952 758.432 187.952C764.429 187.952 769.338 182.849 769.338 176.513C769.338 170.225 764.429 165.05 758.359 165.05Z" fill="white"/>
<path d="M808.708 195.376V176.9C808.708 166.815 805.975 165.05 801.477 165.05C798.623 165.05 796.229 166.283 794.802 168.532C793.642 170.37 793.303 172.547 793.303 177.601V195.376H784.234V157.626H792.626V161.229C795.963 158.037 798.962 156.731 803.266 156.731C808.514 156.731 812.601 158.642 815.044 162.172C817.099 165.098 817.776 168.363 817.776 175.11V195.352H808.708V195.376Z" fill="white"/>
<path d="M837.268 196.271C829.771 196.271 824.378 192.184 823.435 183.381H832.576C833.471 186.573 834.97 187.952 837.631 187.952C839.952 187.952 841.717 186.38 841.717 184.276C841.717 182.099 841.379 181.471 835.309 179.439C827.812 176.924 824.814 173.78 824.814 168.267C824.814 161.785 830.327 156.755 837.365 156.755C843.773 156.755 849.432 160.987 849.771 168.073H840.919C840.508 166.09 839.275 165.074 837.365 165.074C835.382 165.074 833.882 166.429 833.882 168.267C833.882 170.25 834.076 170.37 840.291 172.353C848.199 174.796 850.786 177.795 850.786 183.405C850.762 190.612 844.837 196.271 837.268 196.271Z" fill="white"/>
<path d="M880.894 195.376V176.102C880.894 168.194 878.838 165.05 873.542 165.05C868.367 165.05 865.562 167.903 865.562 176.222V195.376H856.493V145.026H865.562V160.213C868.295 157.771 871.293 156.658 875.163 156.658C884.231 156.658 889.963 161.64 889.963 174.046V195.376H880.894V195.376Z" fill="white"/>
<path d="M898.065 195.376V157.626H907.134V195.376H898.065V195.376ZM898.114 152.185V143.116H907.182V152.185H898.114Z" fill="white"/>
<path d="M924.159 174.385V195.376H915.09V157.626H923.409V161.302C925.803 157.819 927.714 156.731 931.583 156.731H932.26V165.461C926.819 165.606 924.159 168.532 924.159 174.385Z" fill="white"/>
<path d="M973.637 180.527H944.4C945.488 185.098 949.454 187.951 954.823 187.951C958.571 187.951 960.82 186.936 963.142 184.203H973.032C970.517 191.966 962.682 196.27 955.04 196.27C943.529 196.27 934.605 187.685 934.605 176.634C934.605 165.534 943.408 156.731 954.508 156.731C965.753 156.731 974 165.316 974 177.045C973.976 178.423 973.903 179.221 973.637 180.527ZM954.605 165.05C949.212 165.05 945.536 167.71 944.109 172.547H965.028C963.891 167.71 960.215 165.05 954.605 165.05Z" fill="white"/>
<path d="M405.358 269.279C390.63 269.279 378.853 257.55 378.853 243.041C378.853 228.797 390.509 217.141 404.753 217.141C415.104 217.141 424.172 222.727 428.598 232.473H418.175C414.765 228.047 410.823 226.137 404.947 226.137C395.346 226.137 388.26 233.633 388.26 243.113C388.26 252.52 395.902 260.283 405.164 260.283C410.001 260.283 413.556 258.639 417.643 254.358H428.622C424.656 263.548 415.66 269.279 405.358 269.279Z" fill="white"/>
<path d="M452.732 269.279C441.68 269.279 432.684 260.428 432.684 249.522C432.684 238.688 441.68 229.764 452.659 229.764C464.05 229.764 472.828 238.543 472.828 249.812C472.828 260.428 463.687 269.279 452.732 269.279ZM452.732 238.083C446.807 238.083 441.825 243.186 441.825 249.401C441.825 255.882 446.662 260.985 452.804 260.985C458.802 260.985 463.711 255.882 463.711 249.546C463.687 243.258 458.778 238.083 452.732 238.083Z" fill="white"/>
<path d="M503.831 268.409V264.806C500.422 268.143 497.568 269.304 492.997 269.304C484.195 269.304 478.608 264.201 478.608 250.9V230.659H487.677V249.135C487.677 259.147 490.458 260.985 494.835 260.985C497.907 260.985 500.349 259.679 501.727 257.502C502.743 255.809 503.154 253.488 503.154 248.434V230.659H512.223V268.409H503.831V268.409Z" fill="white"/>
<path d="M544.653 268.409V249.933C544.653 239.848 541.92 238.083 537.422 238.083C534.568 238.083 532.174 239.316 530.747 241.565C529.586 243.403 529.248 245.58 529.248 250.634V268.409H520.179V230.635H528.571V234.238C531.908 231.046 534.907 229.74 539.211 229.74C544.459 229.74 548.546 231.65 550.989 235.181C553.044 238.107 553.721 241.372 553.721 248.119V268.36H544.653V268.409Z" fill="white"/>
<path d="M580.299 269.279C569.126 269.279 560.13 260.477 560.13 249.522C560.13 238.422 568.86 229.764 580.033 229.764C588.618 229.764 596.114 234.601 599.041 243.258H588.811C586.973 239.776 584.12 238.083 580.008 238.083C573.745 238.083 569.247 242.847 569.247 249.473C569.247 256.075 573.938 260.985 580.226 260.985C583.974 260.985 586.562 259.485 588.811 256.003H599.041C595.897 264.443 589.077 269.279 580.299 269.279Z" fill="white"/>
<path d="M606.054 268.409V230.635H615.122V268.384H606.054V268.409ZM606.126 225.193V216.125H615.195V225.193H606.126Z" fill="white"/>
<path d="M623.079 268.409V218.035H632.147V268.385H623.079V268.409Z" fill="white"/>
</svg>
