<svg width="974" height="327" viewBox="0 0 974 327" fill="none" xmlns="http://www.w3.org/2000/svg">
<g clip-path="url(#clip0)">
<path d="M64.2307 117.143C67.7614 117.143 71.268 117.264 74.7746 117.434V107.083C76.951 100.941 81.0864 96.1767 86.1406 94.0969C91.1949 96.2009 95.306 100.965 97.5067 107.083V119.779C117.845 122.996 137.022 129.09 154.531 137.578V66.77H154.41C154.144 65.6576 153.466 64.5693 152.451 63.5778V67.6648L149.912 65.7785V61.6673C145.341 58.9105 137.796 57.0725 129.211 57V62.683H125.656V57.0726C118.353 57.4353 111.968 59.0556 107.833 61.4255V66.3589L105.947 68.2452V62.683C104.326 63.9164 103.286 65.319 102.924 66.7942H102.803V70.5667H99.9492V76.5158H95.0158V70.5667H77.6765V76.5158H72.7432V70.5667H69.5026V66.7942H69.3817C69.019 65.319 67.9791 63.9406 66.3588 62.683V68.2452L64.4725 66.3589V61.4255C60.313 59.0556 53.9529 57.4111 46.6496 57.0726V62.683H43.0947V57C34.5096 57.0725 26.9645 58.9105 22.3939 61.6673V65.7785L19.8547 67.6648V63.5778C18.839 64.5693 18.1618 65.6576 17.8958 66.77H17.7749V122.294C32.6233 118.957 48.1973 117.143 64.2307 117.143Z" fill="#3C3C3B"/>
<path d="M263.5 161.157C279.927 161.157 293.245 147.839 293.245 131.411C293.245 114.984 279.927 101.666 263.5 101.666C247.072 101.666 233.754 114.984 233.754 131.411C233.754 147.839 247.072 161.157 263.5 161.157Z" fill="#3CAA36"/>
<path d="M311.164 161.665C322.61 161.665 331.889 152.386 331.889 140.94C331.889 129.494 322.61 120.215 311.164 120.215C299.718 120.215 290.439 129.494 290.439 140.94C290.439 152.386 299.718 161.665 311.164 161.665Z" fill="#3CAA36"/>
<path d="M209.766 73.8799C211.241 72.2596 212.716 70.6635 214.191 69.0432C214.312 69.1158 214.457 69.1883 214.578 69.2851C213.998 70.1799 213.417 71.0988 212.813 71.9936C212.861 72.0178 212.885 72.0661 212.934 72.0903C212.91 72.042 212.885 71.9936 212.861 71.9452C213.587 71.4374 214.336 70.9537 215.062 70.4459C215.932 69.8413 216.779 69.2125 217.649 68.5838L217.601 68.5354C216.972 69.6962 216.344 70.857 215.666 72.1629C216.972 71.2197 218.23 70.3008 219.487 69.3818C219.608 69.5027 219.729 69.6478 219.85 69.7687C219.004 70.8328 218.157 71.8969 217.093 73.2511C218.399 72.6465 219.463 72.1629 220.503 71.6792C217.553 74.9439 216.924 79.176 215.473 83.0211C214.675 85.125 214.264 87.3982 213.611 89.5747C212.571 92.9604 211.483 96.346 210.249 100.264C214.965 100.264 219.463 100.264 223.961 100.264C224.155 100.53 224.348 100.82 224.517 101.086C217.649 102.271 218.327 107.446 218.061 112.428C217.408 112.041 216.972 111.847 216.61 111.581C214.046 109.623 211.507 107.64 208.968 105.657C207.904 104.834 207.251 104.81 206.283 106.116C204.639 108.365 202.535 110.3 200.697 112.428C197.819 115.741 194.966 119.102 192.112 122.44C191.411 123.262 190.685 124.108 190.081 124.979C189.041 126.454 188.098 128.002 186.864 129.864C186.695 128.703 186.55 127.76 186.381 126.527C185.776 127.663 185.244 128.606 184.712 129.574C184.543 129.525 184.349 129.477 184.18 129.429C184.301 128.147 184.422 126.889 184.567 125.342C183.745 126.357 183.068 127.228 182.39 128.074C182.245 128.002 182.076 127.929 181.931 127.857C182.39 126.43 182.826 124.979 183.406 123.165C182.535 123.842 181.955 124.302 181.375 124.761C181.254 124.689 181.157 124.616 181.036 124.568C181.786 123.117 182.535 121.642 183.406 119.925C182.753 120.166 182.39 120.287 182.028 120.432L181.979 120.384C185.22 115.402 187.348 109.671 192.209 105.802C193.66 104.665 194.772 103.117 196.417 101.4C194.893 100.578 193.732 99.9493 192.547 99.3205C193.128 97.6519 194.458 96.7571 196.417 96.8055C198.593 96.878 199.706 95.6931 200.238 93.7342C200.6 92.4283 201.181 91.1708 201.374 89.8649C202.293 83.0211 207.033 78.0877 209.911 72.2354C210.104 72.308 210.274 72.3805 210.467 72.4772C210.225 72.9851 209.983 73.5171 209.766 74.025C209.79 74.0492 209.838 74.0492 209.862 74.0733C209.814 73.9766 209.79 73.9282 209.766 73.8799Z" fill="#E30613"/>
<path d="M167.009 134.459C166.961 134.58 166.888 134.676 166.84 134.797C166.767 134.725 166.695 134.652 166.646 134.58C166.767 134.531 166.864 134.459 166.985 134.41C166.961 134.41 167.009 134.459 167.009 134.459Z" fill="#E30613"/>
<path d="M202.631 82.6342C202.679 82.5616 202.703 82.4891 202.752 82.4165C202.752 82.4649 202.776 82.5374 202.752 82.5374C202.703 82.5616 202.655 82.5858 202.583 82.61C202.583 82.61 202.631 82.6342 202.631 82.6342Z" fill="#E30613"/>
<path d="M0.411133 242.993V265.676H342.191V242.993C228.289 225.847 114.362 260.163 0.411133 242.993Z" fill="#07873A"/>
<path d="M132.862 195.594C148.944 183.357 168.847 173.176 191.482 165.8C157.988 138.618 113.322 121.98 64.2304 121.98C41.6675 121.98 20.0478 125.487 0 131.919V192.861C44.3035 199.535 88.5828 198.447 132.862 195.594Z" fill="#3CAA36"/>
<path d="M280.524 157.819C226.741 157.819 178.544 172.112 145.461 194.771C211.046 190.176 276.631 183.018 342.215 192.885V164.373C322.966 160.141 302.192 157.819 280.524 157.819Z" fill="#07873A"/>
<path d="M342.215 236.608C228.143 219.438 114.095 253.778 0.0234375 236.608V199.269C114.095 216.439 228.143 182.099 342.215 199.269V236.608Z" fill="#1A9DD9"/>
<path d="M411.839 122.367L390.776 85.7779V122.367H381.441V72.0177H392.081L412.927 108.679V72.0177H422.262V122.367H411.839Z" fill="black"/>
<path d="M450 123.262C438.948 123.262 429.952 114.411 429.952 103.504C429.952 92.67 438.948 83.7465 449.927 83.7465C461.318 83.7465 470.096 92.5249 470.096 103.77C470.096 114.386 460.979 123.262 450 123.262ZM450 92.0413C444.075 92.0413 439.093 97.1439 439.093 103.359C439.093 109.84 443.93 114.943 450.073 114.943C456.07 114.943 460.979 109.84 460.979 103.504C460.979 97.2165 456.07 92.0413 450 92.0413Z" fill="black"/>
<path d="M484.969 101.376V122.367H475.9V84.6171H484.219V88.2929C486.614 84.8105 488.524 83.7223 492.393 83.7223H493.07V92.4524C487.605 92.5975 484.969 95.5237 484.969 101.376Z" fill="black"/>
<path d="M509.83 92.8636V122.367H500.761V92.8636H496.335V84.6171H500.761V72.0177H509.83V84.6171H515.271V92.8636H509.83Z" fill="black"/>
<path d="M545.596 122.367V103.093C545.596 95.1851 543.541 92.0413 538.244 92.0413C533.069 92.0413 530.264 94.8949 530.264 103.214V122.367H521.195V72.0177H530.264V87.2047C532.997 84.7622 535.995 83.6498 539.865 83.6498C548.933 83.6498 554.665 88.6315 554.665 101.037V122.367H545.596V122.367Z" fill="black"/>
<path d="M411.839 195.376L390.776 158.787V195.376H381.441V145.026H392.081L412.927 181.688V145.026H422.262V195.376H411.839V195.376Z" fill="black"/>
<path d="M450 196.271C438.948 196.271 429.952 187.42 429.952 176.513C429.952 165.679 438.948 156.755 449.927 156.755C461.318 156.755 470.096 165.534 470.096 176.779C470.096 187.42 460.979 196.271 450 196.271ZM450 165.05C444.075 165.05 439.093 170.153 439.093 176.368C439.093 182.849 443.93 187.952 450.073 187.952C456.07 187.952 460.979 182.849 460.979 176.513C460.979 170.226 456.07 165.05 450 165.05Z" fill="black"/>
<path d="M484.969 174.385V195.376H475.9V157.626H484.219V161.302C486.614 157.82 488.524 156.731 492.393 156.731H493.07V165.461C487.605 165.607 484.969 168.533 484.969 174.385Z" fill="black"/>
<path d="M509.83 165.872V195.376H500.761V165.872H496.335V157.626H500.761V145.026H509.83V157.626H515.271V165.872H509.83Z" fill="black"/>
<path d="M545.596 195.376V176.102C545.596 168.194 543.541 165.05 538.244 165.05C533.069 165.05 530.264 167.904 530.264 176.223V195.376H521.195V145.026H530.264V160.213C532.997 157.771 535.995 156.659 539.865 156.659C548.933 156.659 554.665 161.64 554.665 174.046V195.376H545.596V195.376Z" fill="black"/>
<path d="M592.705 195.376V190.467C589.102 194.554 585.474 196.271 580.178 196.271C569.127 196.271 561.17 188.024 561.17 176.634C561.17 165.123 569.199 156.731 580.396 156.731C585.837 156.731 589.586 158.497 592.729 162.656V157.602H601.048V195.352H592.705V195.376ZM581.315 165.05C574.834 165.05 570.263 169.959 570.263 176.828C570.263 183.429 574.834 187.928 581.436 187.928C588.328 187.928 592.415 183.018 592.415 176.755C592.415 169.887 587.796 165.05 581.315 165.05Z" fill="black"/>
<path d="M655.993 195.376V174.651C655.993 167.082 653.139 165.05 648.907 165.05C643.877 165.05 641.265 167.783 641.265 176.779V195.376H632.196V174.651C632.196 167.227 629.609 165.05 624.845 165.05C619.597 165.05 617.493 167.856 617.493 176.779V195.376H608.424V157.626H616.743V161.157C619.403 157.965 622.136 156.731 626.562 156.731C631.737 156.731 635.074 158.497 637.662 162.584C640.733 158.497 644.481 156.731 649.802 156.731C659.741 156.731 665.061 162.245 665.061 173.563V195.376H655.993Z" fill="black"/>
<path d="M694.517 196.271C689.874 196.271 686.343 194.916 682.933 191.845V208H673.864V157.626H682.183V162.052C685.109 158.642 689.487 156.731 694.589 156.731C705.496 156.731 713.404 164.978 713.404 176.368C713.38 187.831 705.399 196.271 694.517 196.271ZM693.404 165.05C687.141 165.05 682.353 169.959 682.353 176.441C682.353 183.043 687.117 187.952 693.525 187.952C699.523 187.952 704.214 182.97 704.214 176.561C704.263 170.032 699.547 165.05 693.404 165.05Z" fill="black"/>
<path d="M729.944 165.872V195.376H720.876V165.872H716.45V157.626H720.876V145.026H729.944V157.626H735.386V165.872H729.944Z" fill="black"/>
<path d="M758.36 196.271C747.308 196.271 738.312 187.42 738.312 176.513C738.312 165.679 747.308 156.755 758.287 156.755C769.677 156.755 778.456 165.534 778.456 176.779C778.456 187.42 769.339 196.271 758.36 196.271ZM758.36 165.05C752.435 165.05 747.453 170.153 747.453 176.368C747.453 182.849 752.29 187.952 758.432 187.952C764.43 187.952 769.339 182.849 769.339 176.513C769.339 170.226 764.43 165.05 758.36 165.05Z" fill="black"/>
<path d="M808.709 195.376V176.9C808.709 166.816 805.976 165.05 801.478 165.05C798.624 165.05 796.23 166.284 794.803 168.533C793.643 170.371 793.304 172.547 793.304 177.601V195.376H784.235V157.626H792.627V161.229C795.964 158.037 798.963 156.731 803.267 156.731C808.515 156.731 812.602 158.642 815.045 162.173C817.1 165.099 817.777 168.363 817.777 175.111V195.352H808.709V195.376Z" fill="black"/>
<path d="M837.269 196.271C829.772 196.271 824.379 192.184 823.436 183.381H832.577C833.472 186.573 834.971 187.952 837.632 187.952C839.953 187.952 841.718 186.38 841.718 184.276C841.718 182.099 841.38 181.471 835.31 179.439C827.813 176.924 824.814 173.78 824.814 168.267C824.814 161.786 830.328 156.755 837.366 156.755C843.774 156.755 849.433 160.988 849.772 168.073H840.92C840.509 166.09 839.276 165.074 837.366 165.074C835.383 165.074 833.883 166.429 833.883 168.267C833.883 170.25 834.077 170.371 840.292 172.354C848.2 174.796 850.787 177.795 850.787 183.405C850.763 190.612 844.838 196.271 837.269 196.271Z" fill="black"/>
<path d="M880.895 195.376V176.102C880.895 168.194 878.839 165.05 873.543 165.05C868.368 165.05 865.563 167.904 865.563 176.223V195.376H856.494V145.026H865.563V160.213C868.296 157.771 871.294 156.659 875.164 156.659C884.232 156.659 889.964 161.64 889.964 174.046V195.376H880.895V195.376Z" fill="black"/>
<path d="M898.066 195.376V157.626H907.135V195.376H898.066V195.376ZM898.114 152.185V143.116H907.183V152.185H898.114Z" fill="black"/>
<path d="M924.159 174.385V195.376H915.091V157.626H923.41V161.302C925.804 157.82 927.714 156.731 931.584 156.731H932.261V165.461C926.82 165.607 924.159 168.533 924.159 174.385Z" fill="black"/>
<path d="M973.638 180.528H944.4C945.488 185.098 949.454 187.952 954.823 187.952C958.571 187.952 960.821 186.936 963.142 184.203H973.033C970.518 191.966 962.683 196.271 955.041 196.271C943.53 196.271 934.606 187.686 934.606 176.634C934.606 165.534 943.409 156.731 954.509 156.731C965.754 156.731 974 165.316 974 177.045C973.976 178.424 973.904 179.222 973.638 180.528ZM954.605 165.05C949.213 165.05 945.537 167.71 944.11 172.547H965.028C963.892 167.71 960.216 165.05 954.605 165.05Z" fill="black"/>
<path d="M405.358 269.28C390.631 269.28 378.854 257.551 378.854 243.041C378.854 228.797 390.51 217.141 404.754 217.141C415.104 217.141 424.173 222.727 428.598 232.473H418.175C414.765 228.047 410.824 226.137 404.947 226.137C395.346 226.137 388.261 233.634 388.261 243.113C388.261 252.521 395.903 260.283 405.165 260.283C410.001 260.283 413.556 258.639 417.643 254.359H428.622C424.656 263.548 415.66 269.28 405.358 269.28Z" fill="black"/>
<path d="M452.732 269.28C441.681 269.28 432.685 260.428 432.685 249.522C432.685 238.688 441.681 229.764 452.66 229.764C464.05 229.764 472.829 238.543 472.829 249.812C472.829 260.429 463.687 269.28 452.732 269.28ZM452.732 238.083C446.808 238.083 441.826 243.186 441.826 249.401C441.826 255.882 446.662 260.985 452.805 260.985C458.802 260.985 463.712 255.882 463.712 249.546C463.687 243.258 458.778 238.083 452.732 238.083Z" fill="black"/>
<path d="M503.832 268.409V264.806C500.422 268.143 497.568 269.304 492.998 269.304C484.195 269.304 478.609 264.201 478.609 250.9V230.659H487.678V249.135C487.678 259.147 490.459 260.985 494.836 260.985C497.907 260.985 500.35 259.679 501.728 257.502C502.744 255.81 503.155 253.488 503.155 248.434V230.659H512.223V268.409H503.832V268.409Z" fill="black"/>
<path d="M544.653 268.409V249.933C544.653 239.849 541.92 238.083 537.422 238.083C534.569 238.083 532.175 239.317 530.748 241.566C529.587 243.403 529.248 245.58 529.248 250.634V268.409H520.18V230.635H528.571V234.238C531.909 231.046 534.907 229.74 539.212 229.74C544.46 229.74 548.547 231.65 550.989 235.181C553.045 238.107 553.722 241.372 553.722 248.119V268.36H544.653V268.409Z" fill="black"/>
<path d="M580.299 269.28C569.126 269.28 560.13 260.477 560.13 249.522C560.13 238.422 568.86 229.764 580.033 229.764C588.618 229.764 596.115 234.601 599.041 243.258H588.812C586.974 239.776 584.12 238.083 580.009 238.083C573.745 238.083 569.247 242.847 569.247 249.474C569.247 256.076 573.939 260.985 580.227 260.985C583.975 260.985 586.563 259.485 588.812 256.003H599.041C595.897 264.443 589.078 269.28 580.299 269.28Z" fill="black"/>
<path d="M606.055 268.409V230.635H615.123V268.385H606.055V268.409ZM606.127 225.194V216.125H615.196V225.194H606.127Z" fill="black"/>
<path d="M623.08 268.409V218.036H632.148V268.385H623.08V268.409Z" fill="black"/>
</g>
<defs>
<clipPath id="clip0">
<rect width="974" height="327" fill="white"/>
</clipPath>
</defs>
</svg>
