<svg width="974" height="327" viewBox="0 0 974 327" fill="none" xmlns="http://www.w3.org/2000/svg">
<path d="M104.502 216.15C104.905 216.955 105.325 217.743 105.755 218.523C116.963 217.945 127.077 212.192 133.25 202.98C133.075 202.647 132.9 202.314 132.725 201.973C126.446 189.477 127.182 175.266 133.425 163.83C130.185 158.908 125.676 154.723 120.071 151.851C115.649 149.583 110.938 148.295 106.035 148.024C103.802 152.017 101.937 156.255 100.466 160.695C94.3711 179.11 95.7984 198.803 104.502 216.15Z" fill="white"/>
<path d="M234.361 150.958C225.657 133.611 210.719 120.704 192.295 114.592C176.236 109.268 159.213 109.679 143.618 115.634C154.957 122.262 164.283 131.474 170.973 142.525C185.439 143.094 199.186 151.299 206.13 165.126C216.288 185.362 208.092 210.09 187.855 220.248C182.304 223.032 176.419 224.433 170.588 224.591C163.705 235.721 154.283 244.819 143.057 251.246C144.213 251.692 145.386 252.113 146.568 252.507C164.992 258.61 184.686 257.183 202.024 248.479C219.37 239.775 232.277 224.836 238.389 206.413C244.501 187.998 243.065 168.304 234.361 150.958Z" fill="white"/>
<path d="M166.385 146.054C159.485 134.434 149.45 124.951 137.121 118.637C127.139 113.515 116.351 110.826 105.457 110.616C100.589 120.266 100.212 131.982 105.309 142.245C111.193 142.429 117.13 143.882 122.708 146.746C129.652 150.31 135.16 155.598 138.96 161.816C144.38 161.509 149.687 159.95 154.433 157.253C159.301 154.46 163.356 150.651 166.385 146.054Z" fill="white"/>
<path d="M138.828 204.959C127.681 222.919 104.354 229.617 85.221 219.81C65.0722 209.477 57.095 184.679 67.4277 164.53C67.5766 164.241 67.7254 163.952 67.883 163.663C61.6572 152.087 58.4873 139.39 58.5136 126.544C50.6152 132.867 44.0741 140.844 39.3193 150.108C30.4664 167.376 28.8552 187.061 34.8097 205.528C40.7553 223.996 53.5399 239.048 70.8077 247.91C88.0756 256.763 107.76 258.374 126.228 252.419C144.695 246.474 159.748 233.689 168.609 216.421C172.164 209.486 174.555 202.157 175.755 194.679C164.424 201.132 151.709 204.661 138.828 204.959Z" fill="white"/>
<path d="M157.278 162.236C151.166 165.721 144.529 167.446 137.953 167.595C133.101 177.192 132.672 188.882 137.795 199.223C149.993 199.101 162.024 195.878 172.917 189.67C183.81 183.462 192.725 174.749 199.047 164.311C193.005 154.977 182.952 149.066 171.753 148.322C168.268 153.917 163.39 158.751 157.278 162.236Z" fill="white"/>
<path d="M95.0195 158.882C96.5344 154.32 98.4346 149.959 100.694 145.826C90.3173 126.317 97.2962 101.886 116.622 90.879C135.939 79.8721 160.501 86.3081 172.007 105.17C179.494 105.424 186.919 106.755 194.117 109.145C199.292 110.861 204.213 113.077 208.828 115.748C207.515 107.009 204.581 98.4972 200.08 90.5901C190.474 73.7338 174.87 61.6235 156.158 56.4922C137.445 51.3608 117.848 53.8302 100.991 63.4361C84.1177 73.042 72.0074 88.6461 66.8761 107.359C61.7448 126.071 64.2141 145.669 73.82 162.525C78.3208 170.432 84.1527 177.288 91.0003 182.866C91.0791 174.819 92.4101 166.745 95.0195 158.882Z" fill="white"/>
<path d="M369.195 76.4308L358.301 119.154H346.463L339.562 92.7267L332.864 119.154H321.016L310.123 76.4308H321.331L327.251 105.091L334.475 76.4308H345.193L352.041 105.091L358.284 76.4308H369.195Z" fill="white"/>
<path d="M390.543 120.012C384.422 120.012 379.729 118.558 376.463 115.651C373.197 112.744 371.568 108.602 371.568 103.226C371.568 97.963 373.091 93.7686 376.13 90.6338C379.177 87.4989 383.433 85.9315 388.897 85.9315C393.862 85.9315 397.601 87.2625 400.105 89.9157C402.61 92.5777 403.862 96.378 403.862 101.334V104.951H381.708C381.804 106.439 382.119 107.691 382.662 108.698C383.205 109.705 383.915 110.502 384.799 111.098C385.666 111.693 386.673 112.114 387.829 112.376C388.985 112.63 390.246 112.761 391.612 112.761C392.785 112.761 393.941 112.63 395.079 112.376C396.217 112.122 397.26 111.781 398.196 111.36C399.028 111.001 399.79 110.607 400.491 110.187C401.191 109.767 401.769 109.39 402.207 109.066H403.275V117.359C402.443 117.683 401.69 117.989 401.007 118.261C400.324 118.541 399.387 118.821 398.188 119.11C397.093 119.399 395.955 119.618 394.79 119.784C393.643 119.933 392.225 120.012 390.543 120.012ZM393.897 98.8999C393.836 96.7808 393.345 95.1609 392.408 94.0488C391.471 92.9367 390.044 92.3851 388.118 92.3851C386.156 92.3851 384.615 92.9718 383.512 94.1364C382.408 95.301 381.796 96.8947 381.682 98.8999H393.897V98.8999Z" fill="white"/>
<path d="M418.94 120.038C416.55 120.038 414.29 119.784 412.163 119.268C410.035 118.751 408.275 118.147 406.891 117.464V108.97H407.732C408.213 109.338 408.765 109.732 409.378 110.178C409.991 110.616 410.849 111.08 411.952 111.553C412.898 111.991 413.958 112.368 415.149 112.683C416.331 112.998 417.618 113.156 419.001 113.156C420.429 113.156 421.681 112.937 422.775 112.499C423.861 112.061 424.404 111.361 424.404 110.406C424.404 109.662 424.15 109.093 423.651 108.716C423.152 108.331 422.18 107.972 420.735 107.622C419.965 107.429 418.993 107.227 417.819 107.009C416.646 106.79 415.604 106.536 414.702 106.247C412.163 105.459 410.245 104.303 408.966 102.762C407.688 101.22 407.049 99.1977 407.049 96.6934C407.049 95.2573 407.381 93.9088 408.047 92.6303C408.712 91.3606 409.684 90.2223 410.98 89.2328C412.268 88.2608 413.861 87.4815 415.761 86.9123C417.662 86.3344 419.798 86.0542 422.189 86.0542C424.465 86.0542 426.55 86.2819 428.458 86.7284C430.367 87.175 431.97 87.7179 433.283 88.3484V96.5007H432.478C432.127 96.2293 431.584 95.8703 430.831 95.4237C430.078 94.9771 429.352 94.583 428.634 94.2591C427.784 93.8738 426.838 93.5585 425.788 93.3134C424.737 93.0682 423.66 92.9368 422.565 92.9368C421.103 92.9368 419.86 93.182 418.853 93.6811C417.837 94.1802 417.338 94.837 417.338 95.6601C417.338 96.3869 417.592 96.9648 418.091 97.3851C418.59 97.8054 419.676 98.217 421.357 98.6198C422.224 98.83 423.222 99.0401 424.352 99.2328C425.481 99.4342 426.558 99.7056 427.6 100.047C429.93 100.791 431.698 101.886 432.898 103.331C434.098 104.776 434.702 106.693 434.702 109.084C434.702 110.599 434.343 112.035 433.634 113.401C432.924 114.767 431.909 115.923 430.604 116.86C429.22 117.875 427.583 118.655 425.709 119.215C423.809 119.767 421.558 120.038 418.94 120.038Z" fill="white"/>
<path d="M451.935 119.784C447.811 119.784 444.816 118.944 442.933 117.262C441.05 115.581 440.114 112.823 440.114 108.996V93.935H436.243V86.9385H440.114V77.7267H450.227V86.9385H459.965V93.935H450.227V105.354C450.227 106.483 450.236 107.464 450.254 108.304C450.271 109.145 450.429 109.898 450.718 110.572C450.989 111.238 451.462 111.772 452.145 112.166C452.828 112.56 453.826 112.753 455.14 112.753C455.683 112.753 456.383 112.639 457.268 112.411C458.143 112.184 458.756 111.973 459.098 111.781H459.965V118.865C458.87 119.154 457.705 119.373 456.471 119.539C455.236 119.705 453.73 119.784 451.935 119.784Z" fill="white"/>
<path d="M350.561 189.661H340.158L323.573 159.88V189.661H313.696V146.938H326.953L340.675 171.413V146.938H350.552V189.661H350.561Z" fill="white"/>
<path d="M389.851 173.567C389.851 178.865 388.389 183.041 385.473 186.089C382.557 189.136 378.433 190.668 373.091 190.668C367.793 190.668 363.678 189.145 360.744 186.089C357.811 183.041 356.34 178.865 356.34 173.567C356.34 168.208 357.811 164.013 360.744 160.984C363.678 157.954 367.793 156.439 373.091 156.439C378.406 156.439 382.531 157.963 385.455 161.019C388.389 164.066 389.851 168.252 389.851 173.567ZM379.483 173.619C379.483 171.71 379.326 170.117 379.01 168.838C378.695 167.569 378.257 166.544 377.697 165.782C377.102 164.977 376.427 164.416 375.674 164.101C374.921 163.786 374.063 163.628 373.1 163.628C372.198 163.628 371.375 163.768 370.648 164.049C369.912 164.329 369.238 164.854 368.625 165.642C368.047 166.386 367.583 167.411 367.242 168.716C366.891 170.02 366.725 171.649 366.725 173.619C366.725 175.59 366.891 177.183 367.215 178.4C367.539 179.618 367.968 180.59 368.485 181.316C369.028 182.061 369.702 182.604 370.508 182.954C371.313 183.304 372.215 183.47 373.196 183.47C374.002 183.47 374.825 183.295 375.665 182.954C376.506 182.612 377.172 182.096 377.671 181.404C378.266 180.581 378.722 179.591 379.028 178.435C379.326 177.271 379.483 175.668 379.483 173.619Z" fill="white"/>
<path d="M417.005 166.938H416.165C415.78 166.807 415.219 166.702 414.492 166.64C413.757 166.57 412.951 166.544 412.067 166.544C411.007 166.544 409.895 166.702 408.731 166.999C407.566 167.306 406.436 167.665 405.333 168.094V189.67H395.219V157.455H405.333V162.078C405.797 161.658 406.436 161.124 407.251 160.485C408.065 159.845 408.818 159.329 409.492 158.952C410.228 158.514 411.077 158.138 412.049 157.823C413.021 157.507 413.941 157.35 414.808 157.35C415.132 157.35 415.499 157.359 415.902 157.376C416.305 157.394 416.673 157.42 416.997 157.464V166.938H417.005Z" fill="white"/>
<path d="M433.301 190.292C429.177 190.292 426.182 189.451 424.299 187.77C422.417 186.089 421.48 183.33 421.48 179.504V164.443H417.609V157.446H421.48V148.234H431.594V157.446H441.331V164.443H431.594V175.861C431.594 176.991 431.602 177.971 431.62 178.812C431.637 179.653 431.795 180.406 432.084 181.08C432.355 181.745 432.828 182.28 433.511 182.674C434.194 183.068 435.192 183.26 436.506 183.26C437.049 183.26 437.749 183.147 438.634 182.919C439.509 182.691 440.122 182.481 440.464 182.288H441.331V189.372C440.236 189.661 439.072 189.88 437.837 190.047C436.602 190.213 435.096 190.292 433.301 190.292Z" fill="white"/>
<path d="M475.858 189.661H465.691V173.681C465.691 172.376 465.639 171.08 465.534 169.793C465.429 168.505 465.227 167.551 464.938 166.938C464.588 166.211 464.089 165.686 463.432 165.371C462.776 165.055 461.9 164.898 460.805 164.898C459.973 164.898 459.142 165.055 458.292 165.353C457.443 165.66 456.541 166.15 455.578 166.815V189.652H445.464V145.012H455.578V160.992C457.233 159.6 458.844 158.506 460.42 157.717C461.987 156.929 463.73 156.544 465.639 156.544C468.949 156.544 471.488 157.577 473.24 159.653C474.991 161.728 475.866 164.731 475.866 168.672V189.661H475.858Z" fill="white"/>
<path d="M501.217 186.246C500.525 186.824 499.904 187.341 499.352 187.796C498.8 188.251 498.065 188.716 497.145 189.171C496.243 189.609 495.359 189.941 494.501 190.178C493.643 190.406 492.443 190.519 490.902 190.519C488.03 190.519 485.648 189.565 483.757 187.647C481.856 185.738 480.911 183.322 480.911 180.414C480.911 178.024 481.392 176.089 482.355 174.618C483.319 173.146 484.702 171.982 486.515 171.115C488.345 170.239 490.534 169.626 493.073 169.276C495.613 168.926 498.354 168.663 501.278 168.47V168.295C501.278 166.518 500.622 165.292 499.299 164.609C497.977 163.935 495.998 163.593 493.362 163.593C492.172 163.593 490.77 163.812 489.177 164.241C487.574 164.67 486.016 165.222 484.501 165.887H483.634V158.111C484.632 157.823 486.252 157.481 488.485 157.096C490.718 156.702 492.968 156.509 495.245 156.509C500.832 156.509 504.895 157.428 507.452 159.276C510 161.124 511.278 163.935 511.278 167.726V189.644H501.226V186.246H501.217ZM501.217 181.255V174.539C499.501 174.714 498.117 174.863 497.058 174.985C495.998 175.108 494.956 175.353 493.94 175.721C493.056 176.027 492.364 176.491 491.874 177.113C491.383 177.735 491.138 178.558 491.138 179.591C491.138 181.106 491.55 182.139 492.364 182.7C493.179 183.26 494.387 183.549 495.989 183.549C496.874 183.549 497.784 183.348 498.704 182.945C499.623 182.542 500.473 181.982 501.217 181.255Z" fill="white"/>
<path d="M557.521 189.661V173.567C557.521 171.982 557.495 170.642 557.434 169.548C557.373 168.453 557.206 167.569 556.917 166.877C556.628 166.185 556.182 165.686 555.578 165.371C554.973 165.055 554.115 164.898 553.021 164.898C552.25 164.898 551.488 165.064 550.735 165.397C549.982 165.73 549.168 166.203 548.283 166.815V189.652H538.117V173.558C538.117 171.991 538.082 170.66 538.012 169.556C537.942 168.453 537.767 167.56 537.478 166.877C537.189 166.194 536.742 165.686 536.138 165.371C535.534 165.055 534.693 164.898 533.607 164.898C532.776 164.898 531.97 165.09 531.182 165.476C530.394 165.861 529.623 166.308 528.87 166.824V189.661H518.756V157.446H528.87V161.001C530.525 159.609 532.084 158.514 533.546 157.726C535.008 156.938 536.655 156.553 538.485 156.553C540.472 156.553 542.215 157.026 543.712 157.963C545.219 158.9 546.357 160.301 547.154 162.148C549.098 160.353 550.937 158.97 552.653 158.006C554.378 157.043 556.12 156.562 557.898 156.562C559.404 156.562 560.753 156.798 561.944 157.28C563.134 157.761 564.15 158.479 564.973 159.434C565.875 160.467 566.558 161.693 567.014 163.12C567.469 164.548 567.688 166.404 567.688 168.698V189.67H557.521V189.661Z" fill="white"/>
<path d="M606.978 173.103C606.978 178.252 605.665 182.402 603.038 185.554C600.411 188.707 597.171 190.292 593.318 190.292C591.698 190.292 590.297 190.108 589.097 189.749C587.906 189.39 586.628 188.821 585.288 188.059V201.483H575.174V157.446H585.288V160.8C586.768 159.539 588.283 158.514 589.824 157.726C591.365 156.938 593.143 156.553 595.165 156.553C598.922 156.553 601.829 158.033 603.887 161.001C605.953 163.961 606.978 167.998 606.978 173.103ZM596.637 173.304C596.637 170.169 596.146 167.893 595.174 166.474C594.202 165.055 592.687 164.355 590.621 164.355C589.719 164.355 588.817 164.495 587.915 164.784C587.022 165.073 586.137 165.502 585.271 166.071V182.28C585.813 182.507 586.4 182.674 587.048 182.77C587.696 182.866 588.458 182.91 589.342 182.91C591.812 182.91 593.633 182.113 594.833 180.511C596.041 178.926 596.637 176.518 596.637 173.304Z" fill="white"/>
<path d="M624.832 190.292C620.708 190.292 617.713 189.451 615.831 187.77C613.948 186.089 613.011 183.33 613.011 179.504V164.443H609.141V157.446H613.011V148.234H623.125V157.446H632.862V164.443H623.125V175.861C623.125 176.991 623.134 177.971 623.151 178.812C623.169 179.653 623.326 180.406 623.615 181.08C623.887 181.745 624.359 182.28 625.042 182.674C625.726 183.068 626.724 183.26 628.037 183.26C628.58 183.26 629.281 183.147 630.165 182.919C631.041 182.691 631.654 182.481 631.995 182.288H632.862V189.372C631.767 189.661 630.603 189.88 629.368 190.047C628.142 190.213 626.627 190.292 624.832 190.292Z" fill="white"/>
<path d="M668.142 173.567C668.142 178.865 666.68 183.041 663.764 186.089C660.848 189.136 656.724 190.668 651.382 190.668C646.084 190.668 641.969 189.145 639.035 186.089C636.102 183.041 634.631 178.865 634.631 173.567C634.631 168.208 636.102 164.013 639.035 160.984C641.969 157.954 646.084 156.439 651.382 156.439C656.697 156.439 660.822 157.963 663.746 161.019C666.68 164.066 668.142 168.252 668.142 173.567ZM657.766 173.619C657.766 171.71 657.608 170.117 657.293 168.838C656.978 167.569 656.54 166.544 655.979 165.782C655.384 164.977 654.71 164.416 653.957 164.101C653.203 163.786 652.345 163.628 651.382 163.628C650.48 163.628 649.657 163.768 648.93 164.049C648.195 164.329 647.52 164.854 646.908 165.642C646.33 166.386 645.865 167.411 645.524 168.716C645.174 170.02 645.007 171.649 645.007 173.619C645.007 175.59 645.174 177.183 645.498 178.4C645.822 179.618 646.251 180.59 646.767 181.316C647.31 182.061 647.985 182.604 648.79 182.954C649.596 183.304 650.498 183.47 651.478 183.47C652.284 183.47 653.107 183.295 653.948 182.954C654.788 182.612 655.454 182.096 655.953 181.404C656.548 180.581 657.004 179.591 657.31 178.435C657.617 177.271 657.766 175.668 657.766 173.619Z" fill="white"/>
<path d="M703.904 189.661H693.737V173.681C693.737 172.376 693.685 171.08 693.58 169.793C693.475 168.506 693.273 167.551 692.984 166.938C692.634 166.211 692.135 165.686 691.478 165.371C690.821 165.056 689.946 164.898 688.851 164.898C688.019 164.898 687.187 165.056 686.338 165.353C685.489 165.66 684.587 166.15 683.624 166.816V189.653H673.51V157.437H683.624V160.993C685.279 159.6 686.89 158.506 688.466 157.718C690.033 156.929 691.776 156.544 693.685 156.544C696.995 156.544 699.534 157.577 701.285 159.653C703.037 161.728 703.912 164.732 703.912 168.672V189.661H703.904Z" fill="white"/>
<path d="M721.268 190.546C718.878 190.546 716.619 190.292 714.491 189.775C712.363 189.259 710.603 188.654 709.219 187.971V179.477H710.06C710.541 179.845 711.093 180.239 711.706 180.686C712.319 181.124 713.177 181.588 714.281 182.061C715.226 182.498 716.286 182.875 717.477 183.19C718.659 183.505 719.946 183.663 721.33 183.663C722.757 183.663 724.009 183.444 725.104 183.006C726.189 182.569 726.732 181.868 726.732 180.914C726.732 180.169 726.478 179.6 725.979 179.224C725.48 178.838 724.508 178.479 723.063 178.129C722.293 177.936 721.321 177.735 720.147 177.516C718.974 177.297 717.932 177.043 717.03 176.754C714.491 175.966 712.573 174.81 711.295 173.269C710.016 171.728 709.377 169.705 709.377 167.201C709.377 165.765 709.71 164.416 710.375 163.138C711.041 161.868 712.013 160.73 713.309 159.74C714.596 158.768 716.189 157.989 718.09 157.42C719.99 156.842 722.126 156.562 724.517 156.562C726.794 156.562 728.878 156.789 730.787 157.236C732.695 157.682 734.298 158.225 735.611 158.856V167.008H734.806C734.456 166.737 733.913 166.378 733.16 165.931C732.407 165.485 731.68 165.09 730.962 164.767C730.112 164.381 729.167 164.066 728.116 163.821C727.065 163.576 725.988 163.444 724.893 163.444C723.431 163.444 722.188 163.689 721.181 164.189C720.165 164.688 719.666 165.344 719.666 166.168C719.666 166.894 719.92 167.472 720.419 167.893C720.918 168.313 722.004 168.724 723.685 169.127C724.552 169.337 725.55 169.548 726.68 169.74C727.809 169.942 728.886 170.213 729.928 170.555C732.258 171.299 734.026 172.393 735.226 173.838C736.426 175.283 737.03 177.201 737.03 179.591C737.03 181.106 736.671 182.542 735.962 183.908C735.252 185.274 734.237 186.43 732.932 187.367C731.548 188.383 729.911 189.162 728.037 189.723C726.137 190.274 723.886 190.546 721.268 190.546Z" fill="white"/>
<path d="M772.231 189.661H762.065V173.681C762.065 172.376 762.012 171.08 761.907 169.793C761.802 168.505 761.601 167.551 761.312 166.938C760.962 166.211 760.463 165.686 759.806 165.371C759.149 165.055 758.273 164.898 757.179 164.898C756.347 164.898 755.515 165.055 754.666 165.353C753.816 165.66 752.914 166.15 751.951 166.815V189.652H741.837V145.012H751.951V160.992C753.606 159.6 755.217 158.506 756.794 157.717C758.361 156.929 760.104 156.544 762.012 156.544C765.322 156.544 767.862 157.577 769.613 159.653C771.364 161.728 772.24 164.731 772.24 168.672V189.661H772.231Z" fill="white"/>
<path d="M790.112 152.849H779.42V145.021H790.112V152.849ZM789.823 189.661H779.709V157.446H789.823V189.661Z" fill="white"/>
<path d="M819.35 166.938H818.51C818.124 166.807 817.564 166.702 816.837 166.64C816.102 166.57 815.296 166.544 814.412 166.544C813.352 166.544 812.24 166.702 811.075 166.999C809.911 167.306 808.781 167.665 807.678 168.094V189.67H797.564V157.455H807.678V162.078C808.142 161.658 808.781 161.124 809.595 160.485C810.41 159.845 811.163 159.329 811.837 158.952C812.573 158.514 813.422 158.138 814.394 157.823C815.366 157.507 816.285 157.35 817.152 157.35C817.476 157.35 817.844 157.359 818.247 157.376C818.65 157.394 819.017 157.42 819.341 157.464V166.938H819.35Z" fill="white"/>
<path d="M839.832 190.519C833.711 190.519 829.017 189.066 825.751 186.159C822.485 183.252 820.856 179.11 820.856 173.733C820.856 168.471 822.38 164.276 825.419 161.141C828.466 158.006 832.722 156.439 838.186 156.439C843.151 156.439 846.89 157.77 849.394 160.423C851.898 163.085 853.15 166.886 853.15 171.842V175.458H830.996C831.093 176.947 831.408 178.199 831.951 179.206C832.494 180.213 833.203 181.01 834.088 181.605C834.954 182.201 835.961 182.621 837.117 182.884C838.273 183.138 839.534 183.269 840.9 183.269C842.073 183.269 843.229 183.138 844.368 182.884C845.506 182.63 846.548 182.288 847.485 181.868C848.317 181.509 849.079 181.115 849.779 180.695C850.48 180.274 851.058 179.898 851.496 179.574H852.564V187.866C851.732 188.19 850.979 188.497 850.296 188.768C849.613 189.048 848.676 189.329 847.476 189.618C846.382 189.907 845.243 190.125 844.079 190.292C842.923 190.441 841.504 190.519 839.832 190.519ZM843.177 169.407C843.116 167.288 842.625 165.668 841.688 164.556C840.751 163.444 839.324 162.893 837.397 162.893C835.436 162.893 833.895 163.479 832.792 164.644C831.688 165.809 831.075 167.402 830.961 169.407H843.177Z" fill="white"/>
<path d="M332.251 261.001C325.798 261.001 320.675 259.066 316.884 255.195C313.092 251.325 311.192 245.878 311.192 238.855C311.192 232.087 313.092 226.684 316.901 222.656C320.701 218.628 325.833 216.614 332.286 216.614C334.003 216.614 335.544 216.71 336.91 216.903C338.276 217.096 339.589 217.358 340.841 217.708C341.822 217.997 342.89 218.391 344.046 218.882C345.202 219.381 346.139 219.81 346.848 220.169V230.353H345.754C345.237 229.898 344.58 229.346 343.792 228.707C343.004 228.067 342.111 227.437 341.104 226.824C340.097 226.211 339.003 225.694 337.794 225.257C336.595 224.828 335.334 224.609 334.029 224.609C332.47 224.609 331.034 224.854 329.738 225.344C328.433 225.835 327.199 226.675 326.025 227.884C324.948 228.978 324.064 230.449 323.381 232.306C322.698 234.162 322.356 236.351 322.356 238.873C322.356 241.535 322.715 243.768 323.425 245.572C324.134 247.376 325.071 248.838 326.227 249.95C327.348 251.018 328.591 251.798 329.966 252.27C331.341 252.752 332.715 252.988 334.081 252.988C335.509 252.988 336.866 252.752 338.153 252.288C339.44 251.824 340.535 251.298 341.419 250.721C342.383 250.125 343.232 249.521 343.959 248.917C344.686 248.312 345.325 247.761 345.868 247.279H346.848V257.323C346.06 257.691 345.141 258.102 344.108 258.575C343.066 259.048 341.997 259.442 340.903 259.766C339.554 260.169 338.293 260.475 337.12 260.685C335.947 260.896 334.309 261.001 332.251 261.001Z" fill="white"/>
<path d="M383.757 244.074C383.757 249.372 382.294 253.549 379.379 256.596C376.463 259.643 372.338 261.176 366.997 261.176C361.699 261.176 357.584 259.652 354.65 256.596C351.717 253.549 350.246 249.372 350.246 244.074C350.246 238.715 351.717 234.53 354.65 231.491C357.584 228.461 361.699 226.947 366.997 226.947C372.312 226.947 376.436 228.47 379.361 231.526C382.294 234.573 383.757 238.759 383.757 244.074ZM373.389 244.136C373.389 242.227 373.231 240.633 372.916 239.363C372.601 238.094 372.163 237.069 371.603 236.307C371.007 235.502 370.333 234.941 369.58 234.626C368.827 234.311 367.969 234.153 367.006 234.153C366.104 234.153 365.281 234.293 364.554 234.565C363.818 234.845 363.144 235.37 362.531 236.158C361.953 236.903 361.489 237.927 361.147 239.232C360.797 240.537 360.631 242.165 360.631 244.136C360.631 246.106 360.797 247.699 361.121 248.908C361.445 250.125 361.874 251.097 362.391 251.824C362.934 252.568 363.608 253.111 364.414 253.461C365.219 253.803 366.121 253.978 367.102 253.978C367.908 253.978 368.731 253.803 369.571 253.461C370.412 253.12 371.077 252.603 371.577 251.911C372.172 251.088 372.627 250.099 372.934 248.943C373.231 247.778 373.389 246.176 373.389 244.136Z" fill="white"/>
<path d="M419.264 260.169H409.151V256.614C407.399 258.067 405.788 259.171 404.326 259.924C402.864 260.677 401.121 261.053 399.098 261.053C395.885 261.053 393.371 260.046 391.576 258.023C389.773 256.009 388.871 252.971 388.871 248.917V227.945H399.037V243.925C399.037 245.589 399.081 246.946 399.168 247.997C399.256 249.048 399.466 249.941 399.79 250.668C400.096 251.333 400.578 251.841 401.217 252.192C401.865 252.533 402.758 252.708 403.914 252.708C404.624 252.708 405.473 252.533 406.445 252.192C407.417 251.85 408.319 251.377 409.151 250.782V227.945H419.264V260.169V260.169Z" fill="white"/>
<path d="M457.399 260.169H447.233V244.188C447.233 242.883 447.18 241.596 447.075 240.3C446.97 239.013 446.769 238.059 446.48 237.446C446.13 236.719 445.631 236.202 444.974 235.878C444.317 235.563 443.441 235.405 442.347 235.405C441.515 235.405 440.683 235.554 439.834 235.861C438.984 236.167 438.082 236.658 437.119 237.323V260.16H427.005V227.945H437.119V231.5C438.774 230.108 440.385 229.013 441.962 228.225C443.538 227.437 445.271 227.052 447.18 227.052C450.49 227.052 453.03 228.094 454.781 230.169C456.532 232.244 457.408 235.248 457.408 239.188V260.169H457.399Z" fill="white"/>
<path d="M480.797 261.027C478.117 261.027 475.665 260.694 473.441 260.02C471.217 259.354 469.282 258.321 467.645 256.92C466.025 255.528 464.764 253.768 463.862 251.657C462.96 249.547 462.504 247.052 462.504 244.188C462.504 241.106 462.995 238.488 463.976 236.325C464.956 234.162 466.287 232.384 467.96 230.992C469.58 229.652 471.48 228.663 473.669 228.024C475.858 227.384 478.135 227.06 480.499 227.06C482.294 227.06 484.08 227.271 485.876 227.673C487.671 228.085 489.466 228.742 491.278 229.635V238.243H489.982C489.58 237.857 489.08 237.437 488.494 236.982C487.907 236.526 487.268 236.106 486.576 235.721C485.841 235.318 485.017 234.976 484.089 234.705C483.161 234.425 482.137 234.285 480.998 234.285C478.415 234.285 476.419 235.178 475 236.964C473.581 238.75 472.872 241.158 472.872 244.179C472.872 247.411 473.625 249.819 475.14 251.412C476.655 253.006 478.66 253.794 481.165 253.794C482.434 253.794 483.555 253.654 484.518 253.365C485.482 253.076 486.313 252.735 487.005 252.332C487.679 251.929 488.257 251.517 488.739 251.08C489.221 250.65 489.632 250.265 489.982 249.915H491.278V258.523C490.7 258.768 490.035 259.057 489.273 259.381C488.511 259.705 487.741 259.976 486.944 260.186C485.963 260.458 485.044 260.659 484.186 260.799C483.336 260.957 482.198 261.027 480.797 261.027Z" fill="white"/>
<path d="M506.479 223.356H495.788V215.528H506.479V223.356ZM506.19 260.169H496.077V227.954H506.19V260.169Z" fill="white"/>
<path d="M524.045 260.169H513.931V215.528H524.045V260.169Z" fill="white"/>
<path d="M262.505 208.68C260.929 210.913 259.852 213.523 259.37 216.29C255.736 237.174 253.258 253.4 237.199 262.095C227.208 267.507 216.131 268.128 206.034 264.792C204.896 274.372 201.166 283.803 194.747 291.701C180.754 308.943 160.15 308.566 141.525 302.971C139.03 302.218 136.403 302.113 133.863 302.673C114.713 306.876 99.9579 310.484 86.5167 297.568C77.4187 288.838 72.6639 276.684 72.3399 264.188C62.5063 267.235 51.5256 266.71 41.2367 261.833C21.8498 252.656 15.8428 231.22 15.0022 210.213C14.8883 207.402 14.1791 204.644 12.9094 202.192C3.33849 183.663 -4.34973 169.504 2.80434 151.614C7.89188 138.891 17.7517 129.968 29.3191 126.054C24.0214 116.938 21.3769 105.748 22.489 93.9876C24.6519 71.1068 41.6045 58.3748 59.7568 51.1419C62.1911 50.1699 64.3802 48.5938 66.149 46.536C79.4852 31.0019 89.5464 18.734 107.392 20.7218C119.135 22.0352 129.266 28.5676 136.21 38.1035C142.532 29.9949 151.402 23.9529 161.875 21.5186C182.549 16.7113 198.907 30.3452 210.815 46.895C212.409 49.1104 214.467 50.8967 216.814 52.0964C234.502 61.1156 248.337 67.7618 252.085 86.8422C254.773 100.537 251.437 114.171 243.976 124.714C256.017 128.261 266.813 137.402 272.952 150.826C282.356 171.395 274.283 192.017 262.505 208.68ZM260.71 151.956C255.132 139.758 245.316 131.448 234.371 128.226C241.157 118.637 244.187 106.255 241.744 93.8037C238.337 76.457 225.763 70.415 209.686 62.2189C207.558 61.1331 205.684 59.5131 204.239 57.4904C193.408 42.4467 178.548 30.0475 159.747 34.417C150.229 36.6324 142.164 42.1227 136.42 49.4957C130.107 40.8355 120.895 34.8898 110.229 33.6989C94.0123 31.8863 84.8529 43.0421 72.7339 57.1576C71.1315 59.0315 69.135 60.4589 66.9196 61.3433C50.4223 67.9194 35.0108 79.4868 33.0494 100.292C32.0424 110.984 34.4417 121.159 39.2577 129.443C28.7499 132.998 19.7832 141.115 15.1598 152.683C8.6537 168.952 15.6502 181.815 24.3454 198.663C25.5012 200.896 26.1492 203.4 26.2543 205.957C27.0161 225.046 32.4714 244.538 50.0983 252.883C59.4503 257.314 69.4327 257.796 78.3731 255.02C78.6708 266.386 82.9966 277.428 91.2627 285.361C103.487 297.104 116.893 293.82 134.301 290.002C136.604 289.494 138.995 289.591 141.262 290.274C158.198 295.361 176.919 295.703 189.642 280.029C195.474 272.848 198.872 264.276 199.905 255.572C209.082 258.61 219.152 258.041 228.232 253.12C242.829 245.213 245.089 230.467 248.381 211.483C248.819 208.969 249.8 206.596 251.236 204.565C261.927 189.425 269.274 170.677 260.71 151.956Z" fill="white"/>
</svg>
