<svg width="974" height="327" viewBox="0 0 974 327" fill="none" xmlns="http://www.w3.org/2000/svg">
<path d="M104.506 216.165C104.906 216.964 105.329 217.756 105.76 218.541C116.963 217.964 127.083 212.212 133.257 203C133.08 202.67 132.904 202.331 132.734 201.993C126.46 189.498 127.19 175.28 133.434 163.846C130.197 158.917 125.691 154.742 120.078 151.866C115.656 149.597 110.942 148.313 106.044 148.036C103.814 152.035 101.946 156.264 100.469 160.709C94.3718 179.132 95.802 198.825 104.506 216.165Z" fill="url(#paint0_linear)"/>
<path d="M234.358 150.981C225.653 133.642 210.713 120.724 192.296 114.618C176.241 109.297 159.209 109.705 143.622 115.664C154.957 122.292 164.292 131.504 170.981 142.554C185.445 143.123 199.194 151.327 206.137 165.153C216.295 185.392 208.098 210.113 187.86 220.271C182.308 223.055 176.425 224.462 170.589 224.615C163.707 235.75 154.28 244.846 143.061 251.267C144.214 251.713 145.383 252.136 146.575 252.528C164.991 258.634 184.692 257.203 202.031 248.499C219.371 239.794 232.289 224.854 238.395 206.438C244.5 188.014 243.07 168.321 234.358 150.981Z" fill="url(#paint1_linear)"/>
<path d="M166.383 146.068C159.486 134.441 149.443 124.968 137.125 118.647C127.144 113.526 116.356 110.835 105.46 110.62C100.584 120.27 100.215 131.989 105.306 142.254C111.188 142.439 117.124 143.892 122.707 146.752C129.658 150.32 135.156 155.603 138.955 161.824C144.376 161.524 149.682 159.963 154.426 157.256C159.309 154.48 163.361 150.666 166.383 146.068Z" fill="url(#paint2_linear)"/>
<path d="M138.832 204.977C127.682 222.931 104.352 229.637 85.2211 219.825C65.0748 209.49 57.0931 184.692 67.4277 164.546C67.5738 164.253 67.7276 163.969 67.8814 163.684C61.653 152.112 58.4926 139.409 58.5157 126.568C50.6186 132.888 44.0749 140.862 39.3228 150.136C30.4646 167.406 28.8652 187.083 34.8091 205.553C40.7531 224.023 53.5406 239.079 70.8034 247.93C88.0738 256.788 107.751 258.387 126.221 252.444C144.691 246.5 159.739 233.712 168.598 216.449C172.158 209.513 174.542 202.185 175.741 194.704C164.422 201.147 151.704 204.677 138.832 204.977Z" fill="url(#paint3_linear)"/>
<path d="M157.278 162.254C151.165 165.737 144.529 167.467 137.955 167.613C133.103 177.218 132.672 188.898 137.793 199.248C149.996 199.125 162.023 195.903 172.919 189.698C183.815 183.484 192.719 174.772 199.047 164.338C193.003 155.003 182.953 149.09 171.75 148.351C168.267 153.934 163.391 158.771 157.278 162.254Z" fill="url(#paint4_linear)"/>
<path d="M95.0171 158.901C96.5319 154.342 98.4312 149.982 100.692 145.845C90.3112 126.337 97.3009 101.907 116.617 90.8961C135.933 79.8925 160.5 86.3286 171.996 105.183C179.478 105.437 186.906 106.767 194.103 109.151C199.278 110.866 204.199 113.088 208.813 115.756C207.498 107.021 204.568 98.5086 200.062 90.6039C190.458 73.741 174.857 61.6378 156.14 56.5089C137.424 51.3801 117.832 53.8484 100.976 63.4525C84.1135 73.0643 72.0103 88.6585 66.8815 107.375C61.7526 126.091 64.221 145.683 73.8251 162.546C78.3311 170.451 84.1596 177.302 91.0032 182.892C91.0801 174.842 92.4104 166.76 95.0171 158.901Z" fill="url(#paint5_linear)"/>
<path d="M369.2 76.4476L358.311 119.17H346.47L339.565 92.7492L332.859 119.17H321.018L310.129 76.4476H321.341L327.261 105.106L334.482 76.4476H345.201L352.044 105.106L358.288 76.4476H369.2V76.4476Z" fill="black"/>
<path d="M390.546 120.031C384.425 120.031 379.727 118.578 376.459 115.671C373.198 112.765 371.561 108.62 371.561 103.245C371.561 97.9857 373.083 93.7873 376.128 90.65C379.173 87.5127 383.425 85.9441 388.9 85.9441C393.868 85.9441 397.605 87.2744 400.111 89.9349C402.618 92.5955 403.864 96.4017 403.864 101.354V104.968H381.703C381.803 106.46 382.118 107.705 382.656 108.713C383.195 109.72 383.91 110.512 384.794 111.112C385.663 111.704 386.67 112.127 387.824 112.388C388.977 112.649 390.238 112.773 391.607 112.773C392.783 112.773 393.937 112.642 395.075 112.388C396.213 112.134 397.251 111.788 398.197 111.373C399.027 111.012 399.788 110.619 400.496 110.197C401.196 109.774 401.772 109.405 402.218 109.074H403.287V117.363C402.457 117.686 401.703 117.994 401.019 118.27C400.334 118.547 399.396 118.832 398.204 119.116C397.105 119.401 395.974 119.631 394.813 119.793C393.645 119.947 392.222 120.031 390.546 120.031ZM393.898 98.9162C393.837 96.7939 393.345 95.1791 392.407 94.0641C391.476 92.9569 390.046 92.4032 388.116 92.4032C386.155 92.4032 384.617 92.9876 383.51 94.1564C382.403 95.3252 381.795 96.9092 381.672 98.9162H393.898Z" fill="black"/>
<path d="M418.942 120.062C416.551 120.062 414.298 119.801 412.168 119.285C410.038 118.77 408.285 118.163 406.893 117.478V108.989H407.731C408.216 109.351 408.762 109.75 409.377 110.196C409.992 110.635 410.853 111.096 411.945 111.573C412.891 112.011 413.952 112.388 415.136 112.703C416.32 113.018 417.604 113.18 418.996 113.18C420.419 113.18 421.68 112.957 422.764 112.519C423.848 112.08 424.394 111.381 424.394 110.427C424.394 109.681 424.14 109.12 423.641 108.735C423.141 108.351 422.164 107.99 420.726 107.644C419.957 107.451 418.981 107.244 417.812 107.028C416.636 106.805 415.598 106.552 414.69 106.267C412.145 105.483 410.238 104.322 408.954 102.784C407.67 101.246 407.031 99.2236 407.031 96.7169C407.031 95.279 407.362 93.9333 408.031 92.6569C408.692 91.3881 409.669 90.2501 410.961 89.2581C412.253 88.2816 413.844 87.5049 415.744 86.9359C417.643 86.3592 419.781 86.0747 422.172 86.0747C424.448 86.0747 426.532 86.2977 428.439 86.7514C430.346 87.1974 431.953 87.7433 433.26 88.3738V96.5246H432.453C432.107 96.2555 431.561 95.9018 430.807 95.4481C430.054 95.0021 429.323 94.61 428.608 94.287C427.762 93.9025 426.809 93.5873 425.763 93.3412C424.709 93.0952 423.641 92.9644 422.541 92.9644C421.08 92.9644 419.842 93.2105 418.827 93.7103C417.812 94.2101 417.312 94.8714 417.312 95.6865C417.312 96.417 417.566 96.986 418.066 97.4089C418.566 97.8318 419.658 98.2394 421.334 98.6392C422.203 98.8469 423.195 99.0545 424.325 99.2544C425.448 99.4543 426.532 99.7311 427.578 100.069C429.908 100.815 431.676 101.907 432.876 103.353C434.075 104.798 434.683 106.713 434.683 109.105C434.683 110.619 434.329 112.057 433.614 113.426C432.899 114.795 431.891 115.948 430.584 116.886C429.2 117.901 427.562 118.686 425.686 119.239C423.81 119.785 421.564 120.062 418.942 120.062Z" fill="black"/>
<path d="M451.938 119.801C447.816 119.801 444.817 118.962 442.941 117.278C441.065 115.594 440.127 112.842 440.127 109.012V93.9487H436.259V86.9513H440.127V77.7394H450.238V86.9513H459.973V93.9487H450.238V105.368C450.238 106.498 450.246 107.482 450.269 108.32C450.292 109.158 450.446 109.92 450.73 110.589C450.999 111.258 451.476 111.788 452.161 112.18C452.845 112.573 453.845 112.765 455.152 112.765C455.69 112.765 456.397 112.649 457.274 112.419C458.151 112.188 458.758 111.98 459.112 111.788H459.981V118.878C458.881 119.162 457.72 119.393 456.482 119.555C455.236 119.716 453.729 119.801 451.938 119.801Z" fill="black"/>
<path d="M350.561 189.675H340.157L323.571 159.893V189.675H313.69V146.952H326.947L340.672 171.427V146.952H350.553V189.675H350.561Z" fill="black"/>
<path d="M389.854 173.581C389.854 178.879 388.393 183.054 385.479 186.107C382.557 189.159 378.435 190.682 373.099 190.682C367.801 190.682 363.687 189.159 360.749 186.107C357.812 183.054 356.343 178.879 356.343 173.581C356.343 168.229 357.812 164.03 360.749 161.001C363.687 157.971 367.801 156.456 373.099 156.456C378.412 156.456 382.533 157.979 385.463 161.031C388.393 164.084 389.854 168.267 389.854 173.581ZM379.481 173.642C379.481 171.727 379.319 170.136 379.004 168.867C378.689 167.598 378.25 166.575 377.689 165.814C377.089 165.015 376.42 164.453 375.667 164.138C374.913 163.823 374.06 163.661 373.099 163.661C372.191 163.661 371.376 163.8 370.646 164.076C369.915 164.353 369.238 164.884 368.623 165.668C368.047 166.414 367.585 167.437 367.239 168.736C366.893 170.036 366.716 171.674 366.716 173.642C366.716 175.611 366.878 177.202 367.208 178.417C367.539 179.632 367.962 180.601 368.477 181.331C369.015 182.077 369.692 182.623 370.5 182.969C371.307 183.315 372.207 183.485 373.183 183.485C373.991 183.485 374.813 183.315 375.651 182.969C376.49 182.623 377.159 182.108 377.658 181.424C378.258 180.601 378.712 179.609 379.019 178.456C379.327 177.287 379.481 175.687 379.481 173.642Z" fill="black"/>
<path d="M417.005 166.952H416.167C415.783 166.822 415.221 166.722 414.491 166.652C413.76 166.583 412.953 166.552 412.061 166.552C411 166.552 409.893 166.706 408.724 167.014C407.555 167.321 406.425 167.683 405.333 168.106V189.682H395.221V157.463H405.333V162.085C405.794 161.662 406.432 161.131 407.255 160.493C408.07 159.855 408.816 159.34 409.493 158.955C410.223 158.517 411.077 158.14 412.053 157.825C413.022 157.51 413.945 157.348 414.814 157.348C415.144 157.348 415.506 157.356 415.913 157.379C416.321 157.394 416.682 157.425 417.013 157.463V166.952H417.005Z" fill="black"/>
<path d="M433.299 190.313C429.177 190.313 426.178 189.475 424.302 187.791C422.426 186.107 421.488 183.354 421.488 179.524V164.461H417.62V157.463H421.488V148.251H431.6V157.463H441.334V164.461H431.6V175.88C431.6 177.01 431.607 177.994 431.63 178.832C431.653 179.67 431.807 180.432 432.092 181.101C432.361 181.77 432.838 182.3 433.522 182.692C434.206 183.085 435.206 183.277 436.513 183.277C437.051 183.277 437.759 183.161 438.635 182.931C439.512 182.7 440.119 182.493 440.473 182.3H441.342V189.39C440.242 189.674 439.081 189.905 437.843 190.067C436.605 190.228 435.09 190.313 433.299 190.313Z" fill="black"/>
<path d="M475.853 189.675H465.687V173.696C465.687 172.396 465.633 171.097 465.526 169.805C465.418 168.513 465.226 167.56 464.934 166.952C464.587 166.222 464.088 165.707 463.434 165.391C462.78 165.076 461.904 164.915 460.804 164.915C459.974 164.915 459.136 165.068 458.29 165.376C457.444 165.683 456.537 166.168 455.575 166.837V189.675H445.464V145.03H455.575V161.008C457.229 159.609 458.843 158.525 460.412 157.74C461.981 156.956 463.719 156.564 465.626 156.564C468.94 156.564 471.47 157.602 473.223 159.678C474.976 161.754 475.853 164.761 475.853 168.698V189.675V189.675Z" fill="black"/>
<path d="M501.22 186.26C500.528 186.837 499.905 187.352 499.359 187.806C498.813 188.267 498.075 188.721 497.152 189.182C496.245 189.621 495.368 189.959 494.507 190.19C493.646 190.42 492.454 190.536 490.908 190.536C488.04 190.536 485.656 189.582 483.757 187.667C481.858 185.753 480.912 183.346 480.912 180.439C480.912 178.048 481.397 176.118 482.358 174.642C483.319 173.165 484.711 172.004 486.518 171.143C488.348 170.266 490.532 169.651 493.077 169.305C495.622 168.959 498.352 168.69 501.281 168.505V168.336C501.281 166.56 500.62 165.33 499.305 164.653C497.983 163.976 496.006 163.638 493.369 163.638C492.177 163.638 490.778 163.853 489.178 164.284C487.579 164.715 486.018 165.26 484.495 165.937H483.626V158.163C484.626 157.879 486.249 157.54 488.478 157.148C490.716 156.756 492.969 156.564 495.238 156.564C500.82 156.564 504.888 157.486 507.441 159.332C509.994 161.177 511.27 163.992 511.27 167.783V189.705H501.22V186.26V186.26ZM501.22 181.27V174.557C499.505 174.726 498.121 174.88 497.06 175.003C495.999 175.126 494.961 175.372 493.938 175.733C493.054 176.041 492.362 176.502 491.87 177.125C491.377 177.748 491.131 178.571 491.131 179.609C491.131 181.124 491.539 182.154 492.362 182.723C493.177 183.285 494.392 183.569 495.983 183.569C496.868 183.569 497.775 183.369 498.698 182.969C499.628 182.562 500.466 182 501.22 181.27Z" fill="black"/>
<path d="M557.522 189.674V173.58C557.522 171.996 557.491 170.651 557.437 169.567C557.376 168.475 557.207 167.59 556.914 166.898C556.622 166.206 556.176 165.706 555.569 165.391C554.961 165.076 554.108 164.914 553.008 164.914C552.239 164.914 551.478 165.084 550.724 165.414C549.971 165.753 549.156 166.222 548.271 166.837V189.674H538.106V173.58C538.106 172.012 538.075 170.682 538.006 169.582C537.937 168.482 537.76 167.59 537.468 166.898C537.176 166.206 536.73 165.706 536.122 165.391C535.515 165.076 534.677 164.914 533.592 164.914C532.762 164.914 531.954 165.107 531.162 165.491C530.37 165.876 529.601 166.322 528.848 166.837V189.674H518.736V157.456H528.848V161.016C530.501 159.616 532.062 158.532 533.531 157.748C534.992 156.964 536.637 156.571 538.467 156.571C540.451 156.571 542.197 157.04 543.696 157.979C545.196 158.917 546.341 160.316 547.133 162.169C549.079 160.37 550.909 158.986 552.639 158.025C554.361 157.056 556.115 156.579 557.883 156.579C559.383 156.579 560.736 156.817 561.928 157.294C563.12 157.771 564.135 158.486 564.957 159.447C565.865 160.478 566.541 161.708 566.995 163.13C567.449 164.553 567.672 166.414 567.672 168.713V189.682H557.522V189.674Z" fill="black"/>
<path d="M606.981 173.127C606.981 178.271 605.666 182.423 603.036 185.576C600.406 188.729 597.169 190.313 593.317 190.313C591.702 190.313 590.295 190.128 589.095 189.767C587.903 189.405 586.627 188.836 585.281 188.075V201.501H575.169V157.463H585.281V160.824C586.765 159.563 588.272 158.54 589.818 157.756C591.356 156.971 593.14 156.579 595.162 156.579C598.914 156.579 601.829 158.063 603.889 161.024C605.95 163.984 606.981 168.013 606.981 173.127ZM596.638 173.327C596.638 170.189 596.154 167.913 595.177 166.498C594.201 165.084 592.686 164.376 590.625 164.376C589.718 164.376 588.818 164.522 587.926 164.807C587.034 165.091 586.15 165.522 585.281 166.099V182.308C585.819 182.539 586.411 182.7 587.057 182.792C587.703 182.885 588.472 182.938 589.356 182.938C591.825 182.938 593.655 182.139 594.847 180.539C596.046 178.94 596.638 176.541 596.638 173.327Z" fill="black"/>
<path d="M624.835 190.313C620.713 190.313 617.715 189.475 615.838 187.791C613.962 186.107 613.024 183.354 613.024 179.524V164.461H609.156V157.463H613.024V148.251H623.136V157.463H632.87V164.461H623.136V175.88C623.136 177.01 623.143 177.994 623.166 178.832C623.189 179.67 623.343 180.432 623.628 181.101C623.897 181.77 624.374 182.3 625.058 182.692C625.742 183.085 626.742 183.277 628.049 183.277C628.587 183.277 629.295 183.161 630.171 182.931C631.048 182.7 631.656 182.493 632.009 182.3H632.878V189.39C631.779 189.674 630.617 189.905 629.379 190.067C628.141 190.228 626.627 190.313 624.835 190.313Z" fill="black"/>
<path d="M668.142 173.581C668.142 178.879 666.681 183.054 663.767 186.107C660.845 189.159 656.723 190.682 651.387 190.682C646.089 190.682 641.975 189.159 639.037 186.107C636.1 183.054 634.631 178.879 634.631 173.581C634.631 168.229 636.1 164.03 639.037 161.001C641.975 157.971 646.089 156.456 651.387 156.456C656.7 156.456 660.822 157.979 663.751 161.031C666.681 164.084 668.142 168.267 668.142 173.581ZM657.769 173.642C657.769 171.727 657.607 170.136 657.292 168.867C656.977 167.598 656.539 166.575 655.977 165.814C655.377 165.015 654.708 164.453 653.955 164.138C653.201 163.823 652.348 163.661 651.387 163.661C650.479 163.661 649.664 163.8 648.934 164.076C648.203 164.353 647.527 164.884 646.911 165.668C646.335 166.414 645.873 167.437 645.527 168.736C645.181 170.036 645.004 171.674 645.004 173.642C645.004 175.611 645.166 177.202 645.497 178.417C645.827 179.632 646.25 180.601 646.765 181.331C647.304 182.077 647.98 182.623 648.788 182.969C649.595 183.315 650.495 183.485 651.471 183.485C652.279 183.485 653.101 183.315 653.94 182.969C654.778 182.623 655.447 182.108 655.946 181.424C656.546 180.601 657 179.609 657.307 178.456C657.615 177.287 657.769 175.687 657.769 173.642Z" fill="black"/>
<path d="M703.906 189.674H693.74V173.696C693.74 172.396 693.686 171.097 693.579 169.805C693.471 168.513 693.279 167.56 692.987 166.952C692.641 166.222 692.141 165.706 691.487 165.391C690.834 165.076 689.957 164.914 688.858 164.914C688.027 164.914 687.189 165.068 686.343 165.376C685.497 165.683 684.59 166.168 683.629 166.837V189.674H673.517V157.456H683.629V161.016C685.282 159.616 686.897 158.532 688.465 157.748C690.034 156.964 691.772 156.571 693.679 156.571C696.993 156.571 699.523 157.609 701.276 159.686C703.029 161.762 703.906 164.768 703.906 168.705V189.674V189.674Z" fill="black"/>
<path d="M721.268 190.566C718.876 190.566 716.623 190.305 714.493 189.79C712.363 189.275 710.61 188.667 709.218 187.983V179.494H710.056C710.541 179.855 711.087 180.255 711.702 180.701C712.317 181.139 713.178 181.601 714.27 182.077C715.216 182.516 716.277 182.892 717.461 183.208C718.646 183.523 719.93 183.684 721.321 183.684C722.744 183.684 724.005 183.461 725.089 183.023C726.173 182.585 726.719 181.885 726.719 180.932C726.719 180.186 726.466 179.624 725.966 179.24C725.466 178.855 724.489 178.494 723.052 178.148C722.283 177.956 721.306 177.748 720.137 177.533C718.961 177.31 717.923 177.056 717.015 176.772C714.47 175.987 712.563 174.826 711.279 173.288C709.995 171.75 709.357 169.728 709.357 167.221C709.357 165.783 709.687 164.438 710.356 163.161C711.018 161.892 711.994 160.754 713.286 159.763C714.578 158.786 716.17 158.009 718.069 157.44C719.968 156.864 722.106 156.579 724.497 156.579C726.773 156.579 728.857 156.802 730.764 157.256C732.671 157.702 734.278 158.248 735.585 158.878V167.029H734.778C734.432 166.76 733.886 166.406 733.132 165.953C732.379 165.507 731.648 165.114 730.933 164.791C730.087 164.407 729.134 164.092 728.088 163.846C727.035 163.6 725.966 163.469 724.866 163.469C723.405 163.469 722.167 163.715 721.152 164.215C720.137 164.715 719.637 165.376 719.637 166.191C719.637 166.921 719.891 167.49 720.391 167.913C720.891 168.336 721.983 168.744 723.659 169.144C724.528 169.351 725.52 169.559 726.65 169.759C727.773 169.959 728.857 170.236 729.903 170.574C732.233 171.32 734.001 172.412 735.201 173.857C736.4 175.303 737.008 177.218 737.008 179.609C737.008 181.124 736.654 182.562 735.939 183.93C735.224 185.299 734.217 186.453 732.909 187.391C731.525 188.406 729.887 189.19 728.011 189.744C726.135 190.29 723.89 190.566 721.268 190.566Z" fill="black"/>
<path d="M772.226 189.675H762.06V173.696C762.06 172.396 762.006 171.097 761.899 169.805C761.791 168.513 761.599 167.56 761.307 166.952C760.961 166.222 760.461 165.707 759.807 165.391C759.154 165.076 758.277 164.915 757.177 164.915C756.347 164.915 755.509 165.068 754.663 165.376C753.817 165.683 752.91 166.168 751.949 166.837V189.675H741.837V145.03H751.949V161.008C753.602 159.609 755.217 158.525 756.785 157.74C758.354 156.956 760.092 156.564 761.999 156.564C765.313 156.564 767.843 157.602 769.596 159.678C771.349 161.754 772.226 164.761 772.226 168.698V189.675V189.675Z" fill="black"/>
<path d="M790.112 152.865H779.423V145.03H790.112V152.865ZM789.819 189.675H779.708V157.456H789.819V189.675Z" fill="black"/>
<path d="M819.347 166.952H818.509C818.125 166.822 817.563 166.722 816.833 166.652C816.102 166.583 815.295 166.552 814.403 166.552C813.342 166.552 812.234 166.706 811.066 167.014C809.897 167.321 808.767 167.683 807.675 168.106V189.682H797.563V157.463H807.675V162.085C808.136 161.662 808.774 161.131 809.597 160.493C810.412 159.855 811.158 159.34 811.835 158.955C812.565 158.517 813.419 158.14 814.395 157.825C815.364 157.51 816.287 157.348 817.156 157.348C817.486 157.348 817.848 157.356 818.255 157.379C818.663 157.394 819.024 157.425 819.355 157.463V166.952H819.347Z" fill="black"/>
<path d="M839.831 190.536C833.711 190.536 829.012 189.082 825.744 186.176C822.484 183.269 820.846 179.125 820.846 173.75C820.846 168.49 822.369 164.292 825.414 161.154C828.459 158.017 832.711 156.448 838.186 156.448C843.153 156.448 846.89 157.779 849.397 160.439C851.904 163.1 853.15 166.906 853.15 171.858V175.472H830.989C831.089 176.964 831.404 178.209 831.942 179.217C832.48 180.224 833.195 181.016 834.08 181.616C834.949 182.208 835.956 182.631 837.109 182.892C838.263 183.154 839.524 183.277 840.893 183.277C842.069 183.277 843.223 183.146 844.361 182.892C845.499 182.639 846.537 182.293 847.482 181.877C848.313 181.516 849.074 181.124 849.782 180.701C850.481 180.278 851.058 179.909 851.504 179.578H852.573V187.867C851.742 188.19 850.989 188.498 850.304 188.775C849.62 189.052 848.682 189.336 847.49 189.621C846.391 189.905 845.26 190.136 844.099 190.297C842.923 190.459 841.5 190.536 839.831 190.536ZM843.176 169.42C843.115 167.298 842.623 165.683 841.685 164.568C840.754 163.461 839.324 162.907 837.394 162.907C835.433 162.907 833.895 163.492 832.788 164.661C831.681 165.829 831.073 167.414 830.95 169.42H843.176Z" fill="black"/>
<path d="M332.252 261.017C325.801 261.017 320.68 259.079 316.881 255.204C313.09 251.328 311.191 245.884 311.191 238.864C311.191 232.089 313.09 226.691 316.896 222.67C320.703 218.641 325.824 216.634 332.283 216.634C333.998 216.634 335.536 216.726 336.904 216.918C338.273 217.11 339.58 217.38 340.834 217.718C341.818 218.002 342.887 218.395 344.04 218.894C345.194 219.394 346.132 219.825 346.839 220.186V230.375H345.74C345.217 229.913 344.563 229.367 343.779 228.721C342.987 228.083 342.095 227.453 341.095 226.845C340.096 226.238 338.988 225.715 337.789 225.284C336.581 224.854 335.328 224.638 334.021 224.638C332.46 224.638 331.03 224.884 329.73 225.369C328.431 225.853 327.193 226.699 326.016 227.906C324.94 228.998 324.055 230.467 323.371 232.328C322.687 234.181 322.348 236.372 322.348 238.895C322.348 241.555 322.702 243.785 323.417 245.592C324.132 247.399 325.063 248.86 326.216 249.967C327.331 251.036 328.577 251.813 329.961 252.29C331.337 252.766 332.706 253.005 334.075 253.005C335.497 253.005 336.858 252.774 338.15 252.305C339.442 251.836 340.526 251.313 341.418 250.744C342.379 250.152 343.225 249.552 343.963 248.937C344.694 248.322 345.332 247.784 345.87 247.299H346.855V257.342C346.063 257.703 345.147 258.118 344.109 258.587C343.071 259.056 342.002 259.456 340.903 259.779C339.557 260.179 338.296 260.487 337.12 260.694C335.943 260.902 334.313 261.017 332.252 261.017Z" fill="black"/>
<path d="M383.756 244.092C383.756 249.391 382.295 253.566 379.381 256.619C376.459 259.671 372.337 261.194 367.001 261.194C361.703 261.194 357.589 259.671 354.652 256.619C351.714 253.566 350.246 249.391 350.246 244.092C350.246 238.741 351.714 234.542 354.652 231.513C357.589 228.483 361.703 226.968 367.001 226.968C372.314 226.968 376.436 228.491 379.365 231.543C382.295 234.588 383.756 238.771 383.756 244.092ZM373.383 244.146C373.383 242.232 373.222 240.64 372.906 239.371C372.591 238.102 372.153 237.08 371.591 236.318C370.992 235.519 370.323 234.957 369.569 234.642C368.816 234.327 367.962 234.165 367.001 234.165C366.094 234.165 365.278 234.304 364.548 234.581C363.817 234.857 363.141 235.388 362.526 236.172C361.949 236.918 361.488 237.941 361.142 239.24C360.796 240.54 360.619 242.178 360.619 244.146C360.619 246.115 360.78 247.707 361.111 248.921C361.441 250.136 361.864 251.105 362.38 251.836C362.918 252.582 363.594 253.128 364.402 253.474C365.209 253.82 366.109 253.989 367.085 253.989C367.893 253.989 368.716 253.82 369.554 253.474C370.392 253.128 371.061 252.612 371.561 251.928C372.16 251.105 372.614 250.113 372.922 248.96C373.229 247.799 373.383 246.199 373.383 244.146Z" fill="black"/>
<path d="M419.266 260.187H409.154V256.626C407.401 258.08 405.794 259.187 404.333 259.941C402.872 260.694 401.126 261.071 399.104 261.071C395.89 261.071 393.375 260.064 391.576 258.041C389.777 256.027 388.877 252.989 388.877 248.929V227.96H399.042V243.939C399.042 245.6 399.089 246.961 399.173 248.014C399.258 249.068 399.465 249.952 399.796 250.682C400.104 251.351 400.58 251.859 401.226 252.205C401.872 252.551 402.772 252.72 403.925 252.72C404.64 252.72 405.478 252.551 406.455 252.205C407.424 251.859 408.331 251.39 409.154 250.798V227.96H419.266V260.187V260.187Z" fill="black"/>
<path d="M457.397 260.186H447.232V244.208C447.232 242.908 447.178 241.609 447.071 240.317C446.963 239.025 446.771 238.072 446.478 237.464C446.132 236.734 445.633 236.219 444.979 235.903C444.325 235.588 443.449 235.427 442.349 235.427C441.519 235.427 440.681 235.58 439.835 235.888C438.989 236.195 438.082 236.68 437.12 237.349V260.186H427.009V227.968H437.12V231.528C438.774 230.129 440.388 229.044 441.957 228.26C443.526 227.476 445.264 227.083 447.171 227.083C450.485 227.083 453.014 228.122 454.768 230.198C456.521 232.274 457.397 235.28 457.397 239.217V260.186V260.186Z" fill="black"/>
<path d="M480.796 261.048C478.12 261.048 475.667 260.709 473.445 260.04C471.223 259.371 469.293 258.341 467.655 256.942C466.04 255.542 464.779 253.789 463.872 251.674C462.964 249.56 462.511 247.068 462.511 244.2C462.511 241.124 463.003 238.502 463.987 236.342C464.971 234.181 466.302 232.405 467.97 231.005C469.585 229.667 471.492 228.675 473.676 228.037C475.86 227.399 478.136 227.076 480.504 227.076C482.296 227.076 484.087 227.283 485.879 227.691C487.671 228.106 489.47 228.76 491.285 229.659V238.264H489.985C489.578 237.879 489.085 237.464 488.493 237.003C487.909 236.542 487.263 236.126 486.571 235.742C485.84 235.342 485.01 235.004 484.087 234.727C483.165 234.45 482.134 234.312 480.996 234.312C478.412 234.312 476.413 235.204 474.998 236.995C473.584 238.787 472.876 241.186 472.876 244.208C472.876 247.437 473.63 249.852 475.144 251.436C476.659 253.02 478.666 253.82 481.165 253.82C482.434 253.82 483.557 253.674 484.518 253.389C485.479 253.105 486.31 252.759 487.002 252.359C487.678 251.959 488.255 251.544 488.732 251.113C489.216 250.682 489.624 250.298 489.977 249.952H491.277V258.556C490.7 258.802 490.031 259.095 489.27 259.418C488.509 259.741 487.732 260.01 486.948 260.217C485.963 260.486 485.048 260.694 484.187 260.832C483.334 260.979 482.203 261.048 480.796 261.048Z" fill="black"/>
<path d="M506.479 223.377H495.791V215.542H506.479V223.377ZM506.187 260.187H496.076V227.968H506.187V260.187Z" fill="black"/>
<path d="M524.042 260.187H513.93V215.542H524.042V260.187Z" fill="black"/>
<path d="M262.509 208.698C260.932 210.928 259.848 213.543 259.371 216.303C255.742 237.188 253.266 253.412 237.203 262.101C227.207 267.507 216.134 268.138 206.037 264.793C204.899 274.374 201.162 283.801 194.749 291.706C180.755 308.953 160.155 308.569 141.531 302.971C139.032 302.217 136.41 302.117 133.872 302.671C114.718 306.869 99.9695 310.476 86.5206 297.565C77.424 288.83 72.672 276.688 72.3413 264.185C62.5065 267.238 51.5337 266.707 41.2376 261.832C21.8448 252.651 15.8394 231.213 15.0012 210.213C14.8859 207.399 14.1707 204.646 12.9097 202.193C3.34403 183.661 -4.3531 169.505 2.80577 151.612C7.89617 138.894 17.754 129.966 29.3189 126.052C24.0209 116.94 21.3834 105.744 22.4907 93.9872C24.6514 71.1035 41.6066 58.3775 59.7537 51.1417C62.1836 50.1729 64.3751 48.5965 66.1436 46.5358C79.4694 30.9954 89.5426 18.7308 107.382 20.7223C119.124 22.0372 129.251 28.5732 136.194 38.1004C142.515 29.9881 151.389 23.9442 161.862 21.5143C182.539 16.7084 198.894 30.3418 210.805 46.8972C212.404 49.1117 214.457 50.9034 216.803 52.0952C234.496 61.1149 248.322 67.7586 252.074 86.8438C254.765 100.539 251.428 114.172 243.962 124.714C255.996 128.259 266.799 137.402 272.936 150.82C282.363 171.412 274.289 192.035 262.509 208.698ZM260.709 151.973C255.127 139.77 245.315 131.466 234.373 128.244C241.155 118.655 244.192 106.267 241.747 93.8181C238.341 76.4707 225.769 70.4345 209.69 62.2376C207.56 61.1534 205.691 59.5309 204.238 57.5086C193.411 42.4604 178.548 30.065 159.747 34.4403C150.228 36.6548 142.161 42.1451 136.417 49.5193C130.104 40.8533 120.892 34.917 110.227 33.7252C94.0101 31.9105 84.852 43.0678 72.7335 57.1856C71.1264 59.0542 69.1348 60.4921 66.9203 61.3687C50.4264 67.9431 35.0091 79.5157 33.0483 100.316C32.041 111.004 34.4401 121.185 39.2537 129.466C28.7422 133.026 19.7763 141.139 15.155 152.704C8.64974 168.967 15.6394 181.839 24.3362 198.679C25.4896 200.909 26.1355 203.416 26.2432 205.968C27.0044 225.061 32.4639 244.546 50.0881 252.889C59.4461 257.319 69.4193 257.803 78.3621 255.027C78.662 266.392 82.9835 277.434 91.2496 285.37C103.476 297.111 116.879 293.828 134.295 290.014C136.602 289.506 138.993 289.606 141.262 290.283C158.194 295.374 176.918 295.72 189.644 280.041C195.472 272.859 198.871 264.285 199.901 255.581C209.083 258.618 219.148 258.049 228.229 253.128C242.831 245.223 245.084 230.475 248.383 211.497C248.822 208.983 249.798 206.614 251.236 204.584C261.932 189.444 269.275 170.697 260.709 151.973Z" fill="black"/>
<defs>
<linearGradient id="paint0_linear" x1="96.75" y1="183.253" x2="133.352" y2="183.413" gradientUnits="userSpaceOnUse">
<stop offset="0.00117826" stop-color="#234E7B"/>
<stop offset="0.9996" stop-color="#386092"/>
</linearGradient>
<linearGradient id="paint1_linear" x1="143.325" y1="183.462" x2="242.122" y2="183.891" gradientUnits="userSpaceOnUse">
<stop offset="0.00117826" stop-color="#234E7B"/>
<stop offset="0.9996" stop-color="#386092"/>
</linearGradient>
<linearGradient id="paint2_linear" x1="101.602" y1="136.133" x2="166.426" y2="136.415" gradientUnits="userSpaceOnUse">
<stop offset="0.00117774" stop-color="#9D1920"/>
<stop offset="1" stop-color="#7F1724"/>
</linearGradient>
<linearGradient id="paint3_linear" x1="31.2438" y1="191.054" x2="175.761" y2="191.683" gradientUnits="userSpaceOnUse">
<stop offset="0.00117774" stop-color="#9D1920"/>
<stop offset="1" stop-color="#7F1724"/>
</linearGradient>
<linearGradient id="paint4_linear" x1="134.171" y1="173.709" x2="199.004" y2="173.99" gradientUnits="userSpaceOnUse">
<stop stop-color="#6C9A36"/>
<stop offset="1" stop-color="#008C49"/>
</linearGradient>
<linearGradient id="paint5_linear" x1="64.3016" y1="118.177" x2="208.804" y2="118.806" gradientUnits="userSpaceOnUse">
<stop stop-color="#6C9A36"/>
<stop offset="1" stop-color="#008C49"/>
</linearGradient>
</defs>
</svg>
